<?xml version="1.0" standalone="no"?>
<!DOCTYPE svg PUBLIC "-//W3C//DTD SVG 1.1//EN" "http://www.w3.org/Graphics/SVG/1.1/DTD/svg11.dtd" >
<svg>
<metadata>
Created by FontForge 20090622 at Sat Aug 13 06:46:36 2016
 By deploy user
URW Software, Copyright 1994 by URW
</metadata>
<defs>
<font id="FuturaT-Bold" horiz-adv-x="1024" >
  <font-face 
    font-family="Futura URW Extra Bold"
    font-weight="400"
    font-stretch="normal"
    units-per-em="2048"
    panose-1="2 11 8 2 2 2 4 2 2 4"
    ascent="1529"
    descent="-519"
    x-height="928"
    cap-height="1365"
    bbox="-307 -512 2643 1892"
    underline-thickness="226"
    underline-position="-99"
    unicode-range="U+0020-U+F002"
  />
<missing-glyph horiz-adv-x="512" 
d="M51 0v1365h410v-1365h-410zM410 51v1263h-308v-1263h308z" />
    <glyph glyph-name=".notdef" horiz-adv-x="512" 
d="M51 0v1365h410v-1365h-410zM410 51v1263h-308v-1263h308z" />
    <glyph glyph-name="glyph1" horiz-adv-x="0" 
 />
    <glyph glyph-name="glyph2" horiz-adv-x="512" 
 />
    <glyph glyph-name="space" unicode=" " horiz-adv-x="512" 
 />
    <glyph glyph-name="exclam" unicode="!" horiz-adv-x="696" 
d="M349 386q88 0 150 -62t62 -150t-62 -150t-150 -62q-89 0 -150 62q-62 63 -62 153q0 86 62 147t150 62zM178 464v901h341v-901h-341z" />
    <glyph glyph-name="quotedbl" unicode="&#x22;" horiz-adv-x="840" 
d="M326 816h-193l-49 549h291zM707 816h-193l-49 549h292z" />
    <glyph glyph-name="numbersign" unicode="#" horiz-adv-x="1229" 
d="M1149 610v-236h-217l-50 -374h-270l50 374h-176l-49 -374h-267l50 374h-188v236h217l23 174h-186v235h215l46 346h267l-46 -346h176l45 346h270l-46 -346h185v-235h-214l-23 -174h188zM714 784h-176l-22 -174h176z" />
    <glyph glyph-name="dollar" unicode="$" horiz-adv-x="1229" 
d="M732 1581v-219q201 -18 329 -105l-134 -261q-118 88 -229 88q-71 0 -115 -33q-41 -31 -41 -70q0 -61 88 -106q18 -9 145 -51q156 -53 242 -133q96 -88 96 -251q0 -170 -95 -283q-80 -95 -286 -154v-227h-168v216q-123 6 -247.5 52t-199.5 114l148 273q169 -151 331 -151
q81 0 129 47q38 38 38 83q0 65 -84 106q-16 8 -138 46q-156 48 -239 117q-107 90 -107 258q0 107 47 202.5t128 154.5q76 55 194 68v219h168z" />
    <glyph glyph-name="percent" unicode="%" horiz-adv-x="1834" 
d="M450 1380q177 0 277 -107q88 -94 88 -224q0 -159 -121 -261q-92 -77 -257 -77q-181 0 -282 106q-87 89 -87 235q0 142 99 234q100 93 283 94zM441 1200q-62 0 -107.5 -44.5t-45.5 -107.5q0 -65 45 -110t109 -45q63 0 108 45t45 109q0 63 -44.5 107.5t-109.5 45.5z
M1223 1365h178l-793 -1365h-177zM1400 653q177 0 277 -107q88 -94 88 -224q0 -159 -121 -261q-92 -77 -257 -77q-181 0 -282 106q-87 90 -87 235q0 142 99 234q100 93 283 94zM1391 473q-62 0 -107.5 -44.5t-45.5 -107.5q0 -64 45 -109.5t109 -45.5q63 0 108 45t45 109
q0 63 -44.5 107.5t-109.5 45.5z" />
    <glyph glyph-name="ampersand" unicode="&#x26;" horiz-adv-x="1548" 
d="M880 702l171 -180q108 98 178 194l201 -193q-62 -80 -187 -200l305 -323h-442l-119 125q-246 -163 -470 -163q-126 0 -234 55q-104 54 -158 156q-43 81 -43 181q0 180 134 292q44 37 192 104q-55 69 -72 96q-55 83 -55 184q0 92 49 177q115 196 376 196q201 0 318 -119
q108 -109 108 -253q0 -148 -116 -244q-46 -38 -136 -85zM578 571q-129 -81 -129 -161q0 -56 45 -93t113 -37q94 0 186 60zM725 868q126 76 126 169q0 54 -34 89.5t-86 35.5q-49 0 -81.5 -32.5t-32.5 -80.5t51 -115q13 -17 34.5 -42t22.5 -24z" />
    <glyph glyph-name="quotesingle" unicode="'" horiz-adv-x="459" 
d="M326 816h-193l-49 549h291z" />
    <glyph glyph-name="parenleft" unicode="(" horiz-adv-x="692" 
d="M399 1558l198 -112q-209 -358 -209 -848q0 -242 57 -476t152 -380l-198 -112q-114 165 -167 342q-95 313 -95 639q0 266 69.5 517t192.5 430z" />
    <glyph glyph-name="parenright" unicode=")" horiz-adv-x="692" 
d="M294 -370l-198 112q209 358 209 848q0 242 -57 475.5t-152 379.5l198 113q114 -165 167 -342q95 -314 95 -639q0 -266 -69.5 -517t-192.5 -430z" />
    <glyph glyph-name="asterisk" unicode="*" horiz-adv-x="1229" 
d="M534 1502h162l-32 -247l226 106l50 -154l-245 -46l171 -182l-131 -95l-119 219l-121 -219l-131 95l171 181l-245 47l50 154l225 -107z" />
    <glyph glyph-name="plus" unicode="+" horiz-adv-x="1229" 
d="M130 799h369v368h232v-368h368v-232h-368v-369h-232v369h-369v232z" />
    <glyph glyph-name="comma" unicode="," horiz-adv-x="621" 
d="M217 347h308l-333 -601h-210z" />
    <glyph glyph-name="hyphen" unicode="-" horiz-adv-x="519" 
d="M0 621h519v-273h-519v273z" />
    <glyph glyph-name="period" unicode="." horiz-adv-x="621" 
d="M311 386q88 0 150 -62t62 -150t-62 -150t-150 -62q-89 0 -150 62q-62 63 -62 153q0 86 62 147t150 62z" />
    <glyph glyph-name="slash" unicode="/" horiz-adv-x="1014" 
d="M743 1502h260l-746 -1816h-259z" />
    <glyph glyph-name="zero" unicode="0" horiz-adv-x="1229" 
d="M615 1417q257 0 424 -211q155 -196 155 -523q0 -169 -37.5 -296t-117.5 -228q-167 -211 -423 -211q-259 0 -425 211q-82 104 -118.5 230.5t-36.5 303.5q0 321 155 513q167 207 424 211zM615 1100q-46 0 -92 -32t-72 -83q-63 -122 -63 -301q0 -188 63 -309q26 -52 72 -84
t92 -32t92 32.5t72 83.5q63 122 63 305q0 186 -63 305q-27 51 -71.5 82.5t-92.5 32.5z" />
    <glyph glyph-name="one" unicode="1" horiz-adv-x="1229" 
d="M479 1065h-194v300h549v-1365h-355v1065z" />
    <glyph glyph-name="two" unicode="2" horiz-adv-x="1229" 
d="M702 300h447v-300h-1096l347 363q172 179 284 346q83 124 83 235q0 74 -46.5 125.5t-112.5 51.5q-65 0 -105.5 -46.5t-40.5 -120.5q0 -20 6 -57h-391q1 141 71 273q67 127 189 191q118 62 269 62q240 0 387 -144q142 -139 142 -348q0 -119 -48.5 -218.5t-154.5 -198.5z
" />
    <glyph glyph-name="three" unicode="3" horiz-adv-x="1229" 
d="M547 599v242q26 -2 40 -2q74 0 113 47q39 45 39 105t-39 98t-100 38q-67 0 -105 -41t-40 -115h-329q16 135 68 224q64 108 174 163q119 60 261 60q201 0 323 -111q117 -107 117 -283q0 -98 -35 -167t-109 -118q80 -26 127 -81q96 -112 96 -268q0 -147 -85 -259
q-74 -96 -197 -145q-120 -47 -252 -47q-332 0 -489 267q-68 115 -71 231h363q4 -70 33 -112q52 -79 161 -79q93 0 143 62q42 53 42 117q0 93 -76 148q-50 36 -111 36q-26 0 -62 -10z" />
    <glyph glyph-name="four" unicode="4" horiz-adv-x="1229" 
d="M1012 553h166v-273h-166v-280h-328v280h-661v229l525 856h464v-812zM684 553v526l-321 -526h321z" />
    <glyph glyph-name="five" unicode="5" horiz-adv-x="1229" 
d="M1013 1065h-472l-25 -151q65 9 110 9q206 0 341 -128q146 -139 146 -351q0 -139 -69 -252q-144 -236 -504 -236q-247 0 -446 124l53 332q188 -158 373 -158q115 0 180 78q47 55 47 127q0 116 -108 181q-79 48 -196 48q-130 0 -259 -57l119 734h710v-300z" />
    <glyph glyph-name="six" unicode="6" horiz-adv-x="1229" 
d="M547 1365h403l-389 -464q107 42 192 42q186 0 313 -135q128 -137 128 -343q0 -258 -196 -405q-155 -115 -390 -115q-279 0 -431 156q-141 145 -141 345q0 116 55 254.5t151 264.5zM607 675q-94 0 -160 -66t-66 -159t66 -159t160 -66t159 66q66 67 66 157q0 95 -65 160.5
t-160 66.5z" />
    <glyph glyph-name="seven" unicode="7" horiz-adv-x="1229" 
d="M714 1065h-570v300h1120l-783 -1365h-390z" />
    <glyph glyph-name="eight" unicode="8" horiz-adv-x="1229" 
d="M364 719q-84 35 -129 84q-86 91 -86 217q0 84 42 163q117 219 425 219q111 0 206.5 -33.5t155.5 -94.5q102 -103 102 -255q0 -144 -96 -225q-42 -34 -127 -75q108 -42 161 -90q118 -105 118 -260q0 -195 -181 -312q-143 -92 -339 -92q-146 0 -276 57q-129 57 -197 162
q-50 79 -50 185q0 164 121 268q51 44 150 82zM614 1164q-61 0 -105.5 -43.5t-44.5 -104.5q0 -63 44 -107.5t107 -44.5q62 0 106 44t44 106q0 63 -43.5 106t-107.5 44zM614 575q-68 0 -115 -48q-48 -48 -48 -114q0 -69 47.5 -117t116.5 -48q67 0 115 48t48 116t-47.5 115
t-116.5 48z" />
    <glyph glyph-name="nine" unicode="9" horiz-adv-x="1229" 
d="M683 0h-403l389 464q-106 -43 -192 -43q-186 0 -313 136q-128 136 -128 342q0 258 196 405q154 116 390 116q279 0 431 -156q141 -145 141 -345q0 -116 -55 -254.5t-151 -264.5zM624 1141q-93 0 -159 -66q-66 -67 -66 -157q0 -95 66 -162q65 -66 160 -66q93 0 159 66
t66 160q0 93 -65.5 158.5t-160.5 66.5z" />
    <glyph glyph-name="colon" unicode=":" horiz-adv-x="621" 
d="M311 386q88 0 150 -62t62 -150t-62 -150t-150 -62q-89 0 -150 62q-62 63 -62 153q0 86 62 147t150 62zM310 996q88 0 150 -62q62 -61 62 -149t-62 -150t-149 -62q-89 0 -150 62q-62 63 -62 152q0 86 61.5 147t149.5 62z" />
    <glyph glyph-name="semicolon" unicode=";" horiz-adv-x="621" 
d="M216 347h308l-333 -601h-210zM358 996q88 0 150 -62q62 -61 62 -149t-62 -150t-149 -62q-89 0 -150 62q-62 63 -62 152q0 86 61.5 147t149.5 62z" />
    <glyph glyph-name="less" unicode="&#x3c;" 
d="M955 1346v-386l-478 -268l478 -270v-382l-887 492v323z" />
    <glyph glyph-name="equal" unicode="=" horiz-adv-x="1229" 
d="M130 980h969v-232h-969v232zM130 618h969v-232h-969v232z" />
    <glyph glyph-name="greater" unicode="&#x3e;" 
d="M68 40v385l478 269l-476 269l-2 383l887 -492v-323z" />
    <glyph glyph-name="question" unicode="?" horiz-adv-x="1120" 
d="M377 459v353q43 -10 73 -10q101 0 169 52t68 129q0 57 -38.5 95.5t-96.5 38.5q-56 0 -88.5 -36t-34.5 -102h-361q3 147 91 254q67 82 178 127q106 43 222 43q205 0 341 -127q65 -61 101.5 -140.5t36.5 -161.5q0 -85 -39 -164t-107 -130t-182 -91v-130h-333zM552 385
q88 0 150 -62q62 -61 62 -149t-62 -150t-149 -62q-89 0 -150 62q-62 62 -62 152q0 86 61.5 147t149.5 62z" />
    <glyph glyph-name="at" unicode="@" horiz-adv-x="1409" 
d="M1087 1027l-55 -451q-5 -43 -5 -88q0 -35 23 -35q19 0 43 11q58 28 94 85q64 99 64 223q0 204 -150 337q-148 132 -367 132q-238 0 -400 -164q-159 -162 -159 -397q0 -222 140 -379q157 -177 434 -177q111 0 192 20t202 78l20 10q8 4 17 8l65 -165l-36 -18
q-130 -61 -228 -84t-230 -23q-238 0 -411 99q-160 91 -256 252q-103 173 -103 377q0 203 100 372q95 159 260 254q179 102 392 102q211 0 381 -100q145 -84 227 -221q86 -143 86 -309q0 -165 -85 -302q-68 -111 -175 -160q-69 -32 -135 -32q-100 0 -156 88q-94 -91 -216 -91
q-143 0 -237 108q-93 106 -93 267q0 178 116 290q102 99 251 99q54 0 93.5 -12.5t95.5 -46.5l12 43h189zM705 850q-73 0 -120.5 -57t-47.5 -146q0 -77 37 -126t96 -49q80 0 136 65q60 70 60 156q0 68 -45 112t-116 45z" />
    <glyph glyph-name="A" unicode="A" horiz-adv-x="1454" 
d="M973 238h-490l-94 -238h-375l525 1365h387l514 -1365h-379zM877 508l-147 435l-149 -435h296z" />
    <glyph glyph-name="B" unicode="B" horiz-adv-x="1266" 
d="M143 0v1365h528q191 0 287 -95q97 -95 97 -261q0 -103 -35 -169t-115 -112q132 -26 190 -85q88 -90 88 -256q0 -165 -111 -269q-125 -118 -360 -118h-569zM498 828h65q81 0 124 34t43 99t-42.5 99t-124.5 34h-65v-266zM498 276h79q118 0 175 25q33 15 52.5 47.5
t19.5 72.5q0 83 -68 118q-30 16 -64.5 20.5t-120.5 4.5h-73v-288z" />
    <glyph glyph-name="C" unicode="C" horiz-adv-x="1208" 
d="M1126 1325v-425q-122 150 -307 150q-162 0 -270 -114q-96 -100 -96 -262q0 -175 120 -276q108 -91 245 -91q172 0 308 143v-420q-126 -42 -185 -54.5t-133 -12.5q-188 0 -361 95q-184 101 -278 269q-87 153 -87 344q0 214 106 384q100 162 277 254q162 85 340 85
q146 0 321 -69z" />
    <glyph glyph-name="D" unicode="D" horiz-adv-x="1423" 
d="M143 0v1365h524q256 0 449 -181q110 -102 169 -240q55 -129 55 -261q0 -194 -110 -366q-110 -171 -288 -255q-132 -62 -275 -62h-524zM498 300h81q100 0 169 27t122 87q99 111 99 269q0 157 -99 268q-53 60 -122 87t-169 27h-81v-765z" />
    <glyph glyph-name="E" unicode="E" horiz-adv-x="1002" 
d="M920 1065h-422v-228h399v-300h-399v-237h422v-300h-777v1365h777v-300z" />
    <glyph glyph-name="F" unicode="F" horiz-adv-x="994" 
d="M925 1065h-427v-228h389v-300h-389v-537h-355v1365h782v-300z" />
    <glyph glyph-name="G" unicode="G" horiz-adv-x="1593" 
d="M807 758h704q-4 -273 -71 -420q-85 -187 -246 -286q-162 -100 -384 -100q-223 0 -400 102q-173 100 -258 288q-71 155 -71 333q0 203 91 375q94 180 268 270q172 89 383 89q218 0 368.5 -94t246.5 -290l-337 -139q-93 216 -295 216q-157 0 -255 -125q-99 -125 -99 -302
q0 -201 122 -331q92 -98 243 -98q153 0 231 100q37 47 50 136h-291v276z" />
    <glyph glyph-name="H" unicode="H" horiz-adv-x="1509" 
d="M498 838h512v527h355v-1365h-355v562h-512v-562h-355v1365h355v-527z" />
    <glyph glyph-name="I" unicode="I" horiz-adv-x="642" 
d="M498 1365v-1365h-355v1365h355z" />
    <glyph glyph-name="J" unicode="J" horiz-adv-x="959" 
d="M816 1365v-944q0 -140 -35 -213q-61 -124 -186 -191q-102 -54 -225 -54q-219 0 -356 202l232 237q7 -61 38.5 -97t77.5 -36q100 0 100 157l-1 76v863h355z" />
    <glyph glyph-name="K" unicode="K" horiz-adv-x="1433" 
d="M498 802l433 563h438l-542 -646l592 -719h-460l-461 592v-592h-355v1365h355v-563z" />
    <glyph glyph-name="L" unicode="L" horiz-adv-x="963" 
d="M498 1365v-1065h426v-300h-781v1365h355z" />
    <glyph glyph-name="M" unicode="M" horiz-adv-x="1875" 
d="M82 0l232 1365h350l277 -728l293 728h353l206 -1365h-355l-101 786l-330 -786h-141l-315 786l-116 -786h-353z" />
    <glyph glyph-name="N" unicode="N" horiz-adv-x="1649" 
d="M143 0v1365h355l653 -835v835h355v-1365h-355l-653 836v-836h-355z" />
    <glyph glyph-name="O" unicode="O" horiz-adv-x="1675" 
d="M837 1406q342 0 559 -229q197 -207 197 -498q0 -200 -99 -369q-106 -182 -293 -277q-162 -82 -370 -82q-337 0 -552 228q-197 208 -197 512q0 191 99 356q211 352 656 359zM837 1062q-159 0 -270 -112q-113 -114 -113 -267q0 -162 113 -276q111 -112 271 -112
q159 0 272 112q112 113 112 272q0 161 -112 271q-113 110 -273 112z" />
    <glyph glyph-name="P" unicode="P" horiz-adv-x="1227" 
d="M498 454v-454h-355v1365h565q119 0 196.5 -26t143.5 -88q134 -126 134 -339q0 -207 -110 -331q-112 -127 -352 -127h-222zM498 739h118q103 0 145 39q50 46 50 130q0 172 -194 172h-119v-341z" />
    <glyph glyph-name="Q" unicode="Q" horiz-adv-x="1675" 
d="M1646 -39l-326 -50l-109 128q-158 -87 -354 -87q-392 0 -602 257q-173 211 -173 471q0 172 81 330q103 200 291 303q165 90 382 90q211 0 387 -91q188 -98 290 -294q80 -155 80 -340q0 -136 -41 -247.5t-137 -235.5zM1063 572l94 -101q65 97 65 206q0 151 -111 266
q-112 116 -274 116t-276 -117q-108 -111 -108 -272q0 -169 121 -277q108 -97 261 -97q53 0 111 17l-218 218z" />
    <glyph glyph-name="R" unicode="R" horiz-adv-x="1284" 
d="M849 560l429 -560h-442l-338 524v-524h-355v1365h552q115 0 195.5 -29t139.5 -91q117 -124 117 -302q0 -90 -33.5 -171t-90.5 -131q-64 -56 -174 -81zM498 754h66q101 0 152 36q28 21 47 58.5t19 74.5t-19 74.5t-47 58.5q-51 36 -152 36h-66v-338z" />
    <glyph glyph-name="S" unicode="S" horiz-adv-x="1170" 
d="M1034 1287l-142 -276q-114 92 -232 92q-75 0 -117 -42q-35 -34 -35 -75q0 -62 85 -103q24 -11 161 -52q178 -53 256.5 -142t78.5 -237q0 -264 -176 -387q-144 -101 -356 -101q-253 0 -475 155l152 286q159 -139 313 -139q94 0 137 49q34 39 34 84q0 56 -44.5 88.5
t-169.5 69.5q-195 57 -259 110q-109 89 -109 271q0 213 141 342q128 118 324 118q223 0 433 -111z" />
    <glyph glyph-name="T" unicode="T" horiz-adv-x="965" 
d="M658 1065v-1065h-355v1065h-289v300h938v-300h-294z" />
    <glyph glyph-name="U" unicode="U" horiz-adv-x="1477" 
d="M498 1365v-739q0 -117 6.5 -159t32.5 -85q61 -104 198 -104q67 0 123.5 30t84.5 81q22 40 29 85t7 152v739h355v-787q0 -196 -52 -301q-79 -160 -236 -242q-136 -70 -316 -70q-205 0 -357 89q-127 75 -178.5 192.5t-51.5 331.5v787h355z" />
    <glyph glyph-name="V" unicode="V" horiz-adv-x="1432" 
d="M386 1365l329 -830l332 830h385l-582 -1365h-276l-574 1365h386z" />
    <glyph glyph-name="W" unicode="W" horiz-adv-x="2076" 
d="M371 1365l237 -882l289 882h282l269 -882l258 882h370l-436 -1365h-362l-249 791l-261 -791h-361l-407 1365h371z" />
    <glyph glyph-name="X" unicode="X" horiz-adv-x="1455" 
d="M534 728l-437 637h437l203 -354l212 354h436l-445 -637l515 -728h-428l-292 444l-306 -444h-429z" />
    <glyph glyph-name="Y" unicode="Y" horiz-adv-x="1311" 
d="M469 656l-494 709h424l258 -372l248 372h430l-511 -709v-656h-355v656z" />
    <glyph glyph-name="Z" unicode="Z" horiz-adv-x="1293" 
d="M622 300h573v-300h-1168l646 1065h-537v300h1129z" />
    <glyph glyph-name="bracketleft" unicode="[" horiz-adv-x="689" 
d="M423 1311v-1432h185v-193h-444v1816h444v-191h-185z" />
    <glyph glyph-name="backslash" unicode="\" horiz-adv-x="1014" 
d="M272 1502l745 -1816h-259l-746 1816h260z" />
    <glyph glyph-name="bracketright" unicode="]" horiz-adv-x="689" 
d="M266 -123v1432h-184v193h443v-1816h-443v191h184z" />
    <glyph glyph-name="asciicircum" unicode="^" 
d="M351 691h-338l285 684h429l285 -684h-338l-161 423z" />
    <glyph glyph-name="underscore" unicode="_" 
d="M0 -99h1024v-226h-1024v226z" />
    <glyph glyph-name="grave" unicode="`" 
d="M197 1344l208 149l259 -316l-152 -112z" />
    <glyph glyph-name="a" unicode="a" horiz-adv-x="1270" 
d="M830 928h328v-928h-328v102q-106 -132 -286 -132q-117 0 -224 59q-117 66 -182 181q-63 112 -63 256q0 237 165 379q131 113 301 113q90 0 159 -29t130 -92v91zM628 675q-88 0 -150 -62t-62 -146q0 -90 62 -152q61 -62 150 -62q88 0 150 62q62 61 62 149t-61.5 149
t-150.5 62z" />
    <glyph glyph-name="b" unicode="b" horiz-adv-x="1270" 
d="M440 1502v-665q53 55 103 79q87 42 186 42q204 0 343 -154q123 -136 123 -338q0 -235 -161 -377q-135 -119 -308 -119q-180 0 -286 132v-102h-328v1502h328zM642 675q-88 0 -150 -62t-62 -149t62 -149t151 -62q88 0 149 62q62 63 62 147q0 89 -61 150.5t-151 62.5z" />
    <glyph glyph-name="c" unicode="c" horiz-adv-x="887" 
d="M812 905v-279q-86 60 -170 60q-105 0 -172 -73q-54 -60 -54 -152q0 -100 66 -161q67 -62 160 -62q91 0 170 61v-278q-114 -52 -230 -52q-144 0 -270 75q-237 140 -237 412q0 230 166 375q143 126 350 126q119 0 221 -52z" />
    <glyph glyph-name="d" unicode="d" horiz-adv-x="1270" 
d="M830 1502h328v-1502h-328v102q-106 -132 -286 -132q-117 0 -224 59q-117 66 -182 181q-63 112 -63 256q0 237 165 379q131 113 301 113q90 0 159 -29t130 -92v665zM628 675q-88 0 -150 -62t-62 -146q0 -90 62 -152q61 -62 150 -62q88 0 150 62q62 61 62 149t-61.5 149
t-150.5 62z" />
    <glyph glyph-name="e" unicode="e" horiz-adv-x="1172" 
d="M1096 404h-690q3 -209 200 -209q59 0 94.5 19.5t66.5 68.5h316q-31 -104 -83 -165q-66 -77 -167 -115q-109 -40 -229 -40q-277 0 -422 174q-108 130 -108 318q0 151 70 275q127 224 447 224q220 0 350 -117q83 -75 119 -176.5t36 -256.5zM791 594q-17 69 -67.5 108.5
t-123.5 39.5q-75 0 -123.5 -39t-61.5 -109h376z" />
    <glyph glyph-name="f" unicode="f" horiz-adv-x="708" 
d="M467 655v-655h-328v655h-117v273h117v140q0 116 23 185t81 131q130 138 310 138q72 0 145 -34v-286q-69 33 -115 33q-32 0 -62.5 -18t-41.5 -43q-12 -29 -12 -129v-117h231v-273h-231z" />
    <glyph glyph-name="g" unicode="g" horiz-adv-x="1263" 
d="M1151 928v-864q0 -190 -47 -278q-74 -140 -222 -204q-114 -50 -271 -50q-272 0 -425 162q-82 87 -100 193h369q33 -93 156 -93q99 0 155.5 59t56.5 162v88q-74 -68 -138.5 -95t-153.5 -27q-228 0 -359 166q-97 123 -97 303q0 228 145 371q135 133 327 133
q89 0 153.5 -28.5t122.5 -94.5v97h328zM627 678q-88 0 -149 -62q-62 -62 -62 -147q0 -90 62 -152q61 -62 150 -62q87 0 149 62t62 150t-61 149t-151 62z" />
    <glyph glyph-name="h" unicode="h" horiz-adv-x="1203" 
d="M112 1502h328v-691q57 66 105 93q79 45 192 45q169 0 268 -102q48 -50 67 -106t19 -150v-591h-328v470q0 107 -20 146q-16 33 -52.5 52.5t-78.5 19.5q-86 0 -137 -62q-35 -43 -35 -129v-497h-328v1502z" />
    <glyph glyph-name="i" unicode="i" horiz-adv-x="552" 
d="M439 928v-928h-328v928h328zM275 1469q77 0 131 -54t54 -130q0 -77 -54 -131t-130 -54q-78 0 -131 54q-54 55 -54 133q0 74 54 127.5t130 54.5z" />
    <glyph glyph-name="j" unicode="j" horiz-adv-x="552" 
d="M439 928v-1392h-328v1392h328zM275 1469q77 0 131 -54t54 -130q0 -77 -54 -131t-130 -54q-78 0 -131 54q-54 55 -54 133q0 74 54 127.5t130 54.5z" />
    <glyph glyph-name="k" unicode="k" horiz-adv-x="1264" 
d="M440 1502v-908l343 334h450l-465 -428l493 -500h-460l-361 378v-378h-328v1502h328z" />
    <glyph glyph-name="l" unicode="l" horiz-adv-x="552" 
d="M440 1502v-1502h-328v1502h328z" />
    <glyph glyph-name="m" unicode="m" horiz-adv-x="1795" 
d="M112 928h328v-114q73 70 141 99.5t159 29.5q109 0 184 -41.5t132 -131.5q108 174 313 174q82 0 153 -33.5t110 -91.5q51 -75 51 -216v-603h-328v459q0 71 -3 95.5t-14 52.5q-34 81 -120 81q-41 0 -78.5 -24t-55.5 -61q-23 -50 -23 -144v-459h-328v459q0 110 -14 146
q-14 39 -50.5 64t-77.5 25q-38 0 -75 -22.5t-54 -55.5q-22 -45 -22 -157v-459h-328v928z" />
    <glyph glyph-name="n" unicode="n" horiz-adv-x="1203" 
d="M112 928h328v-117q57 66 105 93q78 44 192 44q170 0 268 -102q48 -49 67 -105t19 -150v-591h-328v470q0 107 -20 145q-16 33 -52.5 52.5t-78.5 19.5q-86 0 -137 -62q-35 -43 -35 -128v-497h-328v928z" />
    <glyph glyph-name="o" unicode="o" horiz-adv-x="1267" 
d="M633 962q276 0 431 -168q128 -138 128 -330q0 -226 -168 -370q-150 -129 -396 -129q-156 0 -292 67q-127 63 -199 192q-62 109 -62 248q0 215 168 361q145 125 390 129zM633 679q-88 0 -149 -62q-62 -63 -62 -148q0 -91 62 -154q61 -62 150 -62q87 0 149 62q62 63 62 151
q0 89 -61 150.5t-151 62.5z" />
    <glyph glyph-name="p" unicode="p" horiz-adv-x="1270" 
d="M440 -464h-328v1392h328v-102q106 132 286 132q117 0 223 -59q118 -66 183 -181q63 -112 63 -256q0 -237 -165 -379q-131 -113 -301 -113q-90 0 -159 29t-130 92v-555zM642 675q-88 0 -150 -62q-62 -61 -62 -149q0 -87 62 -150q62 -62 151 -62q88 0 149 62q62 63 62 147
q0 90 -61 151.5t-151 62.5z" />
    <glyph glyph-name="q" unicode="q" horiz-adv-x="1270" 
d="M830 -464v555q-53 -55 -103 -79q-87 -42 -186 -42q-204 0 -343 154q-123 136 -123 338q0 235 161 377q135 119 308 119q180 0 286 -132v102h328v-1392h-328zM628 675q-89 0 -150 -62q-62 -62 -62 -147q0 -89 62 -152q61 -62 150 -62q88 0 150 62t62 150t-61.5 149
t-150.5 62z" />
    <glyph glyph-name="r" unicode="r" horiz-adv-x="842" 
d="M112 928h328v-152q57 88 128 126.5t177 38.5q25 0 63 -3v-313q-68 33 -140 33q-114 0 -171 -65.5t-57 -195.5v-397h-328v928z" />
    <glyph glyph-name="s" unicode="s" horiz-adv-x="922" 
d="M840 901l-111 -212q-93 45 -179 45q-44 0 -72 -18.5t-28 -47.5q0 -37 52 -56q15 -6 95 -23q115 -23 175 -71q95 -74 95 -204q0 -171 -136 -267q-117 -82 -305 -82q-189 0 -371 107l119 232q141 -94 261 -94q45 0 74 20t29 51q0 35 -26.5 51.5t-113.5 34.5
q-118 25 -176 64q-96 64 -96 194q0 145 103 239q107 97 310 97q156 0 301 -60z" />
    <glyph glyph-name="t" unicode="t" horiz-adv-x="675" 
d="M478 655v-655h-328v655h-108v273h108v279h328v-279h187v-273h-187z" />
    <glyph glyph-name="u" unicode="u" horiz-adv-x="1212" 
d="M440 928v-526q0 -172 167 -172q166 0 166 172v526h328v-589q0 -167 -103 -261q-130 -118 -391 -118q-262 0 -392 118q-103 94 -103 261v589h328z" />
    <glyph glyph-name="v" unicode="v" horiz-adv-x="1181" 
d="M369 928l222 -476l223 476h367l-483 -928h-219l-479 928h369z" />
    <glyph glyph-name="w" unicode="w" horiz-adv-x="1857" 
d="M366 928l222 -489l233 489h206l232 -503l233 503h365l-486 -928h-219l-232 509l-222 -509h-221l-477 928h366z" />
    <glyph glyph-name="x" unicode="x" horiz-adv-x="1344" 
d="M464 504l-377 424h427l160 -191l163 191h426l-384 -424l465 -504h-434l-239 276l-238 -276h-433z" />
    <glyph glyph-name="y" unicode="y" horiz-adv-x="1246" 
d="M448 127l-448 801h381l248 -476l241 476h376l-745 -1392h-368z" />
    <glyph glyph-name="z" unicode="z" horiz-adv-x="1067" 
d="M591 273h391v-273h-941l438 655h-379v273h926z" />
    <glyph glyph-name="braceleft" unicode="{" horiz-adv-x="785" 
d="M417 594q71 -46 97 -101.5t26 -157.5v-278q0 -70 5.5 -92.5t24.5 -34.5q24 -16 95 -16q12 0 38 1v-232q-54 -1 -133 -4h-23q-144 0 -206.5 68.5t-62.5 226.5v342q0 85 -25.5 124.5t-87.5 52.5v222q59 11 86 48q19 28 27 108v343q0 160 62.5 227.5t211.5 67.5q7 0 57 -2
q46 -2 94 -3v-231h-37q-76 0 -99 -18q-17 -13 -22 -34.5t-5 -89.5v-279q0 -103 -25 -155.5t-98 -102.5z" />
    <glyph glyph-name="bar" unicode="|" 
d="M317 1365h391v-1706h-391v1706z" />
    <glyph glyph-name="braceright" unicode="}" horiz-adv-x="785" 
d="M368 594q-71 46 -97 101t-26 158v278q0 70 -5.5 92.5t-24.5 34.5q-24 16 -94 16q-12 0 -38 -1v231l132 5h23q145 0 207 -68.5t62 -226.5v-342q0 -85 25.5 -125t88.5 -52v-222q-59 -11 -87 -48q-12 -18 -19.5 -47t-7.5 -61v-343q0 -160 -62.5 -227.5t-210.5 -67.5
q-8 0 -58 2q-44 2 -93 3v231q94 -1 126 12q22 10 29 34t7 96v279q0 103 25 155.5t98 102.5z" />
    <glyph glyph-name="asciitilde" unicode="~" horiz-adv-x="1365" 
d="M328 1148l-144 95l41 91q85 193 269 193q68 0 212 -54q92 -34 119 -41.5t58 -7.5q51 0 81.5 22t66.5 84l149 -86q-45 -95 -76 -139t-74 -75q-81 -58 -174 -58q-54 0 -209 56q-129 46 -168 46q-52 0 -92 -35q-21 -19 -59 -91z" />
    <glyph glyph-name="Adieresis" unicode="&#xc4;" horiz-adv-x="1454" 
d="M973 238h-490l-94 -238h-375l525 1365h387l514 -1365h-379zM877 508l-147 435l-149 -435h296zM481 1850q74 0 126 -52t52 -125q0 -74 -52 -126t-125 -52q-75 0 -126.5 52.5t-51.5 127.5q0 72 52 123t125 52zM973 1850q74 0 126 -52t52 -125q0 -74 -52 -126t-125 -52
q-75 0 -126.5 52.5t-51.5 127.5q0 72 52 123t125 52z" />
    <glyph glyph-name="Aring" unicode="&#xc5;" horiz-adv-x="1454" 
d="M973 238h-490l-94 -238h-375l525 1365h387l514 -1365h-379zM877 508l-147 435l-149 -435h296zM720 1892h14q143 0 216 -70q59 -55 59 -143q0 -86 -59 -142q-73 -70 -216 -70h-14q-142 0 -215 70q-59 56 -59 145q0 84 59 140q73 70 215 70zM726 1758q-48 0 -76 -21
t-28 -56q0 -37 28 -58t76 -21q50 0 78.5 21t28.5 57q0 37 -28.5 57.5t-78.5 20.5z" />
    <glyph glyph-name="Ccedilla" unicode="&#xc7;" horiz-adv-x="1208" 
d="M1126 1325v-425q-122 150 -307 150q-162 0 -270 -114q-96 -100 -96 -262q0 -175 120 -276q108 -91 245 -91q172 0 308 143v-420q-126 -42 -185 -54.5t-133 -12.5q-188 0 -361 95q-184 101 -278 269q-87 153 -87 344q0 214 106 384q100 162 277 254q162 85 340 85
q146 0 321 -69zM921 -236l-283 -276l-159 111l240 307z" />
    <glyph glyph-name="Eacute" unicode="&#xc9;" horiz-adv-x="1002" 
d="M920 1065h-422v-228h399v-300h-399v-237h422v-300h-777v1365h777v-300zM853 1712l-348 -237l-138 128l296 282z" />
    <glyph glyph-name="Ntilde" unicode="&#xd1;" horiz-adv-x="1649" 
d="M143 0v1365h355l653 -835v835h355v-1365h-355l-653 836v-836h-355zM609 1509h-171q1 96 28 158q27 61 81.5 96.5t120.5 35.5q56 0 187 -42q89 -29 128 -29q59 0 79 74h178q-13 -118 -38 -167q-64 -126 -216 -126q-71 0 -169 35q-105 37 -137 37t-45.5 -14t-25.5 -58z" />
    <glyph glyph-name="Odieresis" unicode="&#xd6;" horiz-adv-x="1675" 
d="M837 1406q342 0 559 -229q197 -207 197 -498q0 -200 -99 -369q-106 -182 -293 -277q-162 -82 -370 -82q-337 0 -552 228q-197 208 -197 512q0 191 99 356q211 352 656 359zM837 1062q-159 0 -270 -112q-113 -114 -113 -267q0 -162 113 -276q111 -112 271 -112
q159 0 272 112q112 113 112 272q0 161 -112 271q-113 110 -273 112zM592 1850q74 0 126 -52t52 -125q0 -74 -52 -126t-125 -52q-75 0 -126.5 52.5t-51.5 127.5q0 72 52 123t125 52zM1084 1850q74 0 126 -52t52 -125q0 -74 -52 -126t-125 -52q-75 0 -126.5 52.5t-51.5 127.5
q0 72 52 123t125 52z" />
    <glyph glyph-name="Udieresis" unicode="&#xdc;" horiz-adv-x="1477" 
d="M498 1365v-739q0 -117 6.5 -159t32.5 -85q61 -104 198 -104q67 0 123.5 30t84.5 81q22 40 29 85t7 152v739h355v-787q0 -196 -52 -301q-79 -160 -236 -242q-136 -70 -316 -70q-205 0 -357 89q-127 75 -178.5 192.5t-51.5 331.5v787h355zM492 1850q74 0 126 -52t52 -125
q0 -74 -52 -126t-125 -52q-75 0 -126.5 52.5t-51.5 127.5q0 72 52 123t125 52zM984 1850q74 0 126 -52t52 -125q0 -74 -52 -126t-125 -52q-75 0 -126.5 52.5t-51.5 127.5q0 72 52 123t125 52z" />
    <glyph glyph-name="aacute" unicode="&#xe1;" horiz-adv-x="1270" 
d="M830 928h328v-928h-328v102q-106 -132 -286 -132q-117 0 -224 59q-117 66 -182 181q-63 112 -63 256q0 237 165 379q131 113 301 113q90 0 159 -29t130 -92v91zM628 675q-88 0 -150 -62t-62 -146q0 -90 62 -152q61 -62 150 -62q88 0 150 62q62 61 62 149t-61.5 149
t-150.5 62zM950 1344l-315 -279l-152 112l259 316z" />
    <glyph glyph-name="agrave" unicode="&#xe0;" horiz-adv-x="1270" 
d="M830 928h328v-928h-328v102q-106 -132 -286 -132q-117 0 -224 59q-117 66 -182 181q-63 112 -63 256q0 237 165 379q131 113 301 113q90 0 159 -29t130 -92v91zM628 675q-88 0 -150 -62t-62 -146q0 -90 62 -152q61 -62 150 -62q88 0 150 62q62 61 62 149t-61.5 149
t-150.5 62zM347 1344l208 149l259 -316l-152 -112z" />
    <glyph glyph-name="acircumflex" unicode="&#xe2;" horiz-adv-x="1270" 
d="M830 928h328v-928h-328v102q-106 -132 -286 -132q-117 0 -224 59q-117 66 -182 181q-63 112 -63 256q0 237 165 379q131 113 301 113q90 0 159 -29t130 -92v91zM628 675q-88 0 -150 -62t-62 -146q0 -90 62 -152q61 -62 150 -62q88 0 150 62q62 61 62 149t-61.5 149
t-150.5 62zM245 1223l400 301l406 -301l-145 -158l-261 202l-261 -202z" />
    <glyph glyph-name="adieresis" unicode="&#xe4;" horiz-adv-x="1270" 
d="M830 928h328v-928h-328v102q-106 -132 -286 -132q-117 0 -224 59q-117 66 -182 181q-63 112 -63 256q0 237 165 379q131 113 301 113q90 0 159 -29t130 -92v91zM628 675q-88 0 -150 -62t-62 -146q0 -90 62 -152q61 -62 150 -62q88 0 150 62q62 61 62 149t-61.5 149
t-150.5 62zM416 1427q74 0 126 -52t52 -125q0 -74 -52 -126t-125 -52q-75 0 -126.5 52.5t-51.5 127.5q0 72 52 123t125 52zM880 1427q74 0 126 -51.5t52 -125.5t-52 -126t-125 -52q-75 0 -126.5 52.5t-51.5 127.5q0 72 52 123t125 52z" />
    <glyph glyph-name="atilde" unicode="&#xe3;" horiz-adv-x="1270" 
d="M830 928h328v-928h-328v102q-106 -132 -286 -132q-117 0 -224 59q-117 66 -182 181q-63 112 -63 256q0 237 165 379q131 113 301 113q90 0 159 -29t130 -92v91zM628 675q-88 0 -150 -62t-62 -146q0 -90 62 -152q61 -62 150 -62q88 0 150 62q62 61 62 149t-61.5 149
t-150.5 62zM454 1075h-156q0 60 10 104q20 89 73 135t117 46q31 0 56.5 -7t123.5 -42q82 -30 119 -30q30 0 42.5 14.5t25.5 64.5h162q-12 -105 -35 -161q-49 -124 -173 -124q-44 0 -89 12t-163 56q-23 9 -48 9q-31 0 -43.5 -15t-21.5 -62z" />
    <glyph glyph-name="aring" unicode="&#xe5;" horiz-adv-x="1270" 
d="M830 928h328v-928h-328v102q-106 -132 -286 -132q-117 0 -224 59q-117 66 -182 181q-63 112 -63 256q0 237 165 379q131 113 301 113q90 0 159 -29t130 -92v91zM628 675q-88 0 -150 -62t-62 -146q0 -90 62 -152q61 -62 150 -62q88 0 150 62q62 61 62 149t-61.5 149
t-150.5 62zM641 1496h14q143 0 216 -70q59 -55 59 -142q0 -88 -59 -142q-74 -70 -216 -70h-14q-141 0 -215 70q-59 54 -59 144q0 85 59 140q73 70 215 70zM646 1366q-48 0 -77.5 -22t-29.5 -59q0 -38 29 -60.5t79 -22.5q52 0 81.5 22t29.5 60q0 39 -29.5 60.5t-82.5 21.5z
" />
    <glyph glyph-name="ccedilla" unicode="&#xe7;" horiz-adv-x="887" 
d="M812 905v-279q-86 60 -170 60q-105 0 -172 -73q-54 -60 -54 -152q0 -100 66 -161q67 -62 160 -62q91 0 170 61v-278q-114 -52 -230 -52q-144 0 -270 75q-237 140 -237 412q0 230 166 376q143 125 350 125q119 0 221 -52zM712 -225l-280 -264l-147 93l239 293z" />
    <glyph glyph-name="eacute" unicode="&#xe9;" horiz-adv-x="1172" 
d="M1096 404h-690q3 -209 200 -209q59 0 94.5 19.5t66.5 68.5h316q-31 -104 -83 -165q-66 -77 -167 -115q-109 -40 -229 -40q-277 0 -422 174q-108 130 -108 318q0 151 70 275q127 224 447 224q220 0 350 -117q83 -75 119 -176.5t36 -256.5zM791 594q-17 69 -67.5 108.5
t-123.5 39.5q-75 0 -123.5 -39t-61.5 -109h376zM901 1344l-315 -279l-152 112l259 316z" />
    <glyph glyph-name="egrave" unicode="&#xe8;" horiz-adv-x="1172" 
d="M1096 404h-690q3 -209 200 -209q59 0 94.5 19.5t66.5 68.5h316q-31 -104 -83 -165q-66 -77 -167 -115q-109 -40 -229 -40q-277 0 -422 174q-108 130 -108 318q0 151 70 275q127 224 447 224q220 0 350 -117q83 -75 119 -176.5t36 -256.5zM791 594q-17 69 -67.5 108.5
t-123.5 39.5q-75 0 -123.5 -39t-61.5 -109h376zM298 1344l208 149l259 -316l-152 -112z" />
    <glyph glyph-name="ecircumflex" unicode="&#xea;" horiz-adv-x="1172" 
d="M1096 404h-690q3 -209 200 -209q59 0 94.5 19.5t66.5 68.5h316q-31 -104 -83 -165q-66 -77 -167 -115q-109 -40 -229 -40q-277 0 -422 174q-108 130 -108 318q0 151 70 275q127 224 447 224q220 0 350 -117q83 -75 119 -176.5t36 -256.5zM791 594q-17 69 -67.5 108.5
t-123.5 39.5q-75 0 -123.5 -39t-61.5 -109h376zM189 1223l400 301l406 -301l-145 -158l-261 202l-261 -202z" />
    <glyph glyph-name="edieresis" unicode="&#xeb;" horiz-adv-x="1172" 
d="M1096 404h-690q3 -209 200 -209q59 0 94.5 19.5t66.5 68.5h316q-31 -104 -83 -165q-66 -77 -167 -115q-109 -40 -229 -40q-277 0 -422 174q-108 130 -108 318q0 151 70 275q127 224 447 224q220 0 350 -117q83 -75 119 -176.5t36 -256.5zM791 594q-17 69 -67.5 108.5
t-123.5 39.5q-75 0 -123.5 -39t-61.5 -109h376zM353 1427q74 0 126 -52t52 -125q0 -74 -52 -126t-125 -52q-75 0 -126.5 52.5t-51.5 127.5q0 72 52 123t125 52zM817 1427q74 0 126 -51.5t52 -125.5t-52 -126t-125 -52q-75 0 -126.5 52.5t-51.5 127.5q0 72 52 123t125 52z
" />
    <glyph glyph-name="iacute" unicode="&#xed;" horiz-adv-x="552" 
d="M440 928v-928h-328v928h328zM591 1344l-315 -279l-152 112l259 316z" />
    <glyph glyph-name="igrave" unicode="&#xec;" horiz-adv-x="552" 
d="M440 928v-928h-328v928h328zM-40 1344l208 149l259 -316l-152 -112z" />
    <glyph glyph-name="icircumflex" unicode="&#xee;" horiz-adv-x="551" 
d="M440 928v-928h-328v928h328zM-86 1223l362 301l362 -301l-145 -158l-217 202l-223 -202z" />
    <glyph glyph-name="idieresis" unicode="&#xef;" horiz-adv-x="552" 
d="M440 928v-928h-328v928h328zM64 1427q74 0 126 -52t52 -125q0 -74 -52 -126t-125 -52q-75 0 -126.5 52.5t-51.5 127.5q0 72 52 123t125 52zM487 1427q74 0 126 -52t52 -125q0 -74 -52 -126t-125 -52q-75 0 -126.5 52.5t-51.5 127.5q0 72 52 123t125 52z" />
    <glyph glyph-name="ntilde" unicode="&#xf1;" horiz-adv-x="1203" 
d="M112 928h328v-117q57 66 105 93q78 44 192 44q170 0 268 -102q48 -49 67 -105t19 -150v-591h-328v470q0 107 -20 145q-16 33 -52.5 52.5t-78.5 19.5q-86 0 -137 -62q-35 -43 -35 -128v-497h-328v928zM393 1075h-156q0 60 10 104q20 89 73 135t117 46q31 0 56.5 -7
t123.5 -42q82 -30 119 -30q30 0 42.5 14.5t25.5 64.5h162q-12 -105 -35 -161q-49 -124 -173 -124q-44 0 -89 12t-163 56q-23 9 -48 9q-31 0 -43.5 -15t-21.5 -62z" />
    <glyph glyph-name="oacute" unicode="&#xf3;" horiz-adv-x="1267" 
d="M633 962q276 0 431 -168q128 -138 128 -330q0 -226 -168 -370q-150 -129 -396 -129q-156 0 -292 67q-127 63 -199 192q-62 109 -62 248q0 215 168 361q145 125 390 129zM633 679q-88 0 -149 -62q-62 -63 -62 -148q0 -91 62 -154q61 -62 150 -62q87 0 149 62q62 63 62 151
q0 89 -61 150.5t-151 62.5zM935 1344l-315 -279l-152 112l259 316z" />
    <glyph glyph-name="ograve" unicode="&#xf2;" horiz-adv-x="1267" 
d="M633 962q276 0 431 -168q128 -138 128 -330q0 -226 -168 -370q-150 -129 -396 -129q-156 0 -292 67q-127 63 -199 192q-62 109 -62 248q0 215 168 361q145 125 390 129zM633 679q-88 0 -149 -62q-62 -63 -62 -148q0 -91 62 -154q61 -62 150 -62q87 0 149 62q62 63 62 151
q0 89 -61 150.5t-151 62.5zM332 1344l208 149l259 -316l-152 -112z" />
    <glyph glyph-name="ocircumflex" unicode="&#xf4;" horiz-adv-x="1267" 
d="M633 962q276 0 431 -168q128 -138 128 -330q0 -226 -168 -370q-150 -129 -396 -129q-156 0 -292 67q-127 63 -199 192q-62 109 -62 248q0 215 168 361q145 125 390 129zM633 679q-88 0 -149 -62q-62 -63 -62 -148q0 -91 62 -154q61 -62 150 -62q87 0 149 62q62 63 62 151
q0 89 -61 150.5t-151 62.5zM230 1223l400 301l406 -301l-145 -158l-261 202l-261 -202z" />
    <glyph glyph-name="odieresis" unicode="&#xf6;" horiz-adv-x="1267" 
d="M633 962q276 0 431 -168q128 -138 128 -330q0 -226 -168 -370q-150 -129 -396 -129q-156 0 -292 67q-127 63 -199 192q-62 109 -62 248q0 215 168 361q145 125 390 129zM633 679q-88 0 -149 -62q-62 -63 -62 -148q0 -91 62 -154q61 -62 150 -62q87 0 149 62q62 63 62 151
q0 89 -61 150.5t-151 62.5zM401 1427q74 0 126 -52t52 -125q0 -74 -52 -126t-125 -52q-75 0 -126.5 52.5t-51.5 127.5q0 72 52 123t125 52zM865 1427q74 0 126 -51.5t52 -125.5t-52 -126t-125 -52q-75 0 -126.5 52.5t-51.5 127.5q0 72 52 123t125 52z" />
    <glyph glyph-name="otilde" unicode="&#xf5;" horiz-adv-x="1267" 
d="M633 962q276 0 431 -168q128 -138 128 -330q0 -226 -168 -370q-150 -129 -396 -129q-156 0 -292 67q-127 63 -199 192q-62 109 -62 248q0 215 168 361q145 125 390 129zM633 679q-88 0 -149 -62q-62 -63 -62 -148q0 -91 62 -154q61 -62 150 -62q87 0 149 62q62 63 62 151
q0 89 -61 150.5t-151 62.5zM439 1075h-156q0 60 10 104q20 89 73 135t117 46q31 0 56.5 -7t123.5 -42q82 -30 119 -30q30 0 42.5 14.5t25.5 64.5h162q-12 -105 -35 -161q-49 -124 -173 -124q-44 0 -89 12t-163 56q-23 9 -48 9q-31 0 -43.5 -15t-21.5 -62z" />
    <glyph glyph-name="uacute" unicode="&#xfa;" horiz-adv-x="1212" 
d="M440 928v-526q0 -172 167 -172q166 0 166 172v526h328v-589q0 -167 -103 -261q-130 -118 -391 -118q-262 0 -392 118q-103 94 -103 261v589h328zM922 1344l-315 -279l-152 112l259 316z" />
    <glyph glyph-name="ugrave" unicode="&#xf9;" horiz-adv-x="1212" 
d="M440 928v-526q0 -172 167 -172q166 0 166 172v526h328v-589q0 -167 -103 -261q-130 -118 -391 -118q-262 0 -392 118q-103 94 -103 261v589h328zM291 1344l208 149l259 -316l-152 -112z" />
    <glyph glyph-name="ucircumflex" unicode="&#xfb;" horiz-adv-x="1212" 
d="M440 928v-526q0 -172 167 -172q166 0 166 172v526h328v-589q0 -167 -103 -261q-130 -118 -391 -118q-262 0 -392 118q-103 94 -103 261v589h328zM203 1223l400 301l406 -301l-145 -158l-261 202l-261 -202z" />
    <glyph glyph-name="udieresis" unicode="&#xfc;" horiz-adv-x="1212" 
d="M440 928v-526q0 -172 167 -172q166 0 166 172v526h328v-589q0 -167 -103 -261q-130 -118 -391 -118q-262 0 -392 118q-103 94 -103 261v589h328zM374 1427q74 0 126 -52t52 -125q0 -74 -52 -126t-125 -52q-75 0 -126.5 52.5t-51.5 127.5q0 72 52 123t125 52zM838 1427
q74 0 126 -51.5t52 -125.5t-52 -126t-125 -52q-75 0 -126.5 52.5t-51.5 127.5q0 72 52 123t125 52z" />
    <glyph glyph-name="dagger" unicode="&#x2020;" horiz-adv-x="1229" 
d="M463 1502h300v-305h322v-259h-322v-1252h-300v1252h-319v259h319v305z" />
    <glyph glyph-name="degree" unicode="&#xb0;" horiz-adv-x="1229" 
d="M614 1385q113 0 193 -80t80 -193t-80 -193t-193 -80q-114 0 -193 80q-80 81 -80 197q0 110 79.5 189t193.5 80zM614 1243q-54 0 -92.5 -38t-38.5 -91q0 -55 38 -93.5t93 -38.5q54 0 92 38t38 92q0 55 -37.5 92.5t-92.5 38.5z" />
    <glyph glyph-name="cent" unicode="&#xa2;" horiz-adv-x="1229" 
d="M873 1345v-180q49 -10 106 -31v-294q-80 69 -165 69q-97 0 -161 -67q-61 -64 -61 -158q0 -106 76 -168q64 -52 145 -52q96 0 166 70v-295q-63 -23 -106 -28v-192h-167v179q-184 11 -316 143q-142 142 -142 345q0 194 124 330q120 132 334 161v168h167z" />
    <glyph glyph-name="sterling" unicode="&#xa3;" horiz-adv-x="1229" 
d="M62 525v173h149q-53 95 -53 215q0 186 122 321q79 88 180 121q107 35 239 35q252 0 370.5 -124t118.5 -389h-358q8 43 8 64q0 73 -51 122q-50 49 -117 49q-74 0 -121.5 -54t-47.5 -140q0 -58 11 -98.5t47 -121.5h307v-173h-256q9 -65 9 -114q0 -52 -18 -111
q159 -47 203.5 -57.5t86.5 -10.5q86 0 90 89h220q-6 -91 -37 -160q-39 -88 -99 -132q-78 -58 -203 -58q-45 0 -88 9t-155 42q-154 45 -229 45q-92 0 -115 -67h-234q32 134 92 207q98 114 218 114q18 37 18 68q0 68 -37 136h-270z" />
    <glyph glyph-name="section" unicode="&#xa7;" horiz-adv-x="1229" 
d="M1026 1133h-285q-4 54 -13 76q-30 76 -109 76q-48 0 -81.5 -31.5t-33.5 -75.5q0 -47 39.5 -78t165.5 -83q117 -48 169 -77.5t94 -71.5q96 -96 96 -239q0 -107 -46.5 -182.5t-162.5 -154.5q95 -62 124 -125q31 -65 31 -137q0 -140 -100 -241q-114 -116 -304 -116
q-180 0 -290 103q-61 57 -86.5 122t-30.5 176h291q1 -58 10 -83q30 -81 117 -81q53 0 89.5 35.5t36.5 87.5q0 65 -53 103q-41 29 -154 66q-112 37 -166 65t-97 71q-101 99 -101 260q0 126 63 218q36 51 135 107q-94 68 -121 134q-25 62 -25 127q0 138 95 231
q104 101 288 101q122 0 221.5 -46t143.5 -122q45 -79 50 -215zM622 754q-64 0 -107.5 -43.5t-43.5 -105.5t44 -105.5t105 -43.5q62 0 105.5 43.5t43.5 105.5q0 61 -42.5 104t-104.5 45z" />
    <glyph glyph-name="bullet" unicode="&#x2022;" horiz-adv-x="1365" 
d="M689 978q113 0 196 -83q84 -83 84 -201t-83 -201t-201 -83q-116 0 -199 82q-85 84 -85 202q0 121 84 202q86 82 204 82z" />
    <glyph glyph-name="paragraph" unicode="&#xb6;" horiz-adv-x="1229" 
d="M379 -188v845h-26q-65 0 -131.5 21.5t-112.5 57.5q-119 93 -119 269q0 118 57 204q53 80 154.5 118t260.5 38h683v-202h-150v-1351h-223v1351h-170v-1351h-223z" />
    <glyph glyph-name="germandbls" unicode="&#xdf;" horiz-adv-x="1217" 
d="M112 0v1095q0 218 120 323q126 111 348 111q220 0 342 -120q111 -110 111 -287q0 -86 -37 -150.5t-124 -130.5q108 -51 158 -95q112 -101 112 -295q0 -155 -76 -279q-122 -200 -460 -200q-22 0 -69 2v277q103 1 161 46q83 62 83 172q0 126 -99 189q-54 35 -145 35v265
q81 1 120 25q61 36 61 123q0 65 -37 103t-100 38q-100 0 -126 -77q-11 -31 -13 -53.5t-2 -125.5v-991h-328z" />
    <glyph glyph-name="registered" unicode="&#xae;" horiz-adv-x="1556" 
d="M790 1396q191 0 360 -105q170 -106 260 -284q78 -154 78 -325q0 -201 -104 -372t-281 -262q-152 -79 -323 -79q-199 0 -369 103q-172 105 -264 285q-79 154 -79 325q0 203 105 375q103 170 286 263q151 76 331 76zM788 1268q-242 0 -409 -169q-169 -171 -169 -417
q0 -243 169 -415q167 -170 400 -170q235 0 401 172q166 171 166 413q0 165 -84 307q-81 138 -224 215q-113 60 -250 64zM894 603l270 -330h-310l-189 274v-274h-247v819h356q142 0 216 -74q77 -76 77 -185q0 -87 -44 -145.5t-129 -84.5zM665 738h28q57 0 86 19q35 23 35 65
q0 40 -32 62t-89 22h-28v-168z" />
    <glyph glyph-name="copyright" unicode="&#xa9;" horiz-adv-x="1556" 
d="M790 1396q191 0 360 -105q170 -106 260 -284q78 -154 78 -325q0 -201 -104 -372t-281 -262q-152 -79 -323 -79q-199 0 -369 103q-172 105 -264 285q-79 154 -79 325q0 203 105 375q103 170 286 263q151 76 331 76zM788 1268q-242 0 -409 -169q-169 -171 -169 -417
q0 -243 169 -415q167 -170 400 -170q235 0 401 172q166 171 166 413q0 165 -84 307q-81 138 -224 215q-113 60 -250 64zM1027 1065v-292l-43 48q-64 61 -159 61q-86 0 -143 -55q-59 -55 -59 -149q0 -86 53 -139q61 -60 149 -60q86 0 154 56q8 7 48 45v-286
q-134 -42 -210 -42q-117 0 -224 57q-227 120 -227 369q0 126 66 228q62 97 172 153q101 50 211 50q92 0 212 -44z" />
    <glyph glyph-name="trademark" unicode="&#x2122;" horiz-adv-x="1590" 
d="M375 1183v-596h-212v596h-162v182h539v-182h-165zM580 587l130 778h209l149 -399l157 399h211l115 -778h-212l-53 422l-175 -422h-92l-167 422l-61 -422h-211z" />
    <glyph glyph-name="acute" unicode="&#xb4;" 
d="M828 1344l-315 -279l-152 112l259 316z" />
    <glyph glyph-name="dieresis" unicode="&#xa8;" 
d="M280 1427q74 0 126 -52t52 -125q0 -74 -52 -126t-125 -52q-75 0 -126.5 52.5t-51.5 127.5q0 72 52 123t125 52zM744 1427q74 0 126 -51.5t52 -125.5t-52 -126t-125 -52q-75 0 -126.5 52.5t-51.5 127.5q0 72 52 123t125 52z" />
    <glyph glyph-name="notequal" unicode="&#x2260;" 
d="M514 1021l148 273l237 -134l-81 -139h138v-323h-269l-76 -135h343v-323h-461l-123 -220l-237 133l55 87h-120v323h238l78 135h-315v323h445z" />
    <glyph glyph-name="AE" unicode="&#xc6;" horiz-adv-x="1892" 
d="M966 240h-493l-85 -240h-374l526 1365h836l110 -300h-449l84 -228h448l113 -300h-450l89 -237h448l109 -300h-823zM872 509l-148 405l-153 -405h301z" />
    <glyph glyph-name="Oslash" unicode="&#xd8;" horiz-adv-x="1675" 
d="M1617 1279l-166 -162q144 -211 144 -434q0 -204 -100 -374q-106 -181 -294 -276q-163 -82 -359 -82q-254 0 -474 148l-172 -162l-141 148l168 161q-76 113 -108.5 210t-32.5 214q0 183 82 343q98 192 279 295q171 97 391 97q187 0 345 -66q55 -23 125 -79l173 167z
M1027 1007q-85 54 -193 54q-172 0 -286 -133q-94 -110 -94 -244q0 -102 45 -181zM636 345q113 -50 197 -50q171 0 287 123q103 108 103 254q0 87 -48 190z" />
    <glyph glyph-name="infinity" unicode="&#x221e;" horiz-adv-x="1365" 
d="M689 532q-147 -168 -323 -168q-156 0 -253 108q-78 88 -78 223q0 161 111 253q93 78 219 78q169 0 313 -167q137 167 321 167q168 0 264 -121q68 -85 68 -209q0 -157 -105 -250q-94 -82 -223 -82q-177 0 -314 168zM807 695q76 -106 155 -106q47 0 79 31t32 75t-32.5 75
t-79.5 31q-61 0 -117 -59q-8 -9 -23 -27.5t-14 -19.5zM559 695q-76 105 -155 105q-47 0 -79 -30.5t-32 -75.5q0 -44 32.5 -74.5t79.5 -30.5q61 0 117 59q8 9 23 27.5t14 19.5z" />
    <glyph glyph-name="plusminus" unicode="&#xb1;" horiz-adv-x="1229" 
d="M130 887h369v369h232v-369h368v-232h-368v-327h-232v327h-369v232zM130 232h969v-232h-969v232z" />
    <glyph glyph-name="lessequal" unicode="&#x2264;" 
d="M955 1375v-362l-465 -123l465 -121v-361l-887 322v323zM955 356v-340h-887v340h887z" />
    <glyph glyph-name="greaterequal" unicode="&#x2265;" 
d="M69 408v361l464 121l-465 123v362l887 -322v-323zM68 16v340h887v-340h-887z" />
    <glyph glyph-name="yen" unicode="&#xa5;" horiz-adv-x="1229" 
d="M109 675v214h187l-289 476h404l206 -392l196 392h409l-300 -476h198v-214h-333l-12 -19v-109h345v-214h-345v-333h-337v333h-329v214h329v109l-11 19h-318z" />
    <glyph glyph-name="mu" unicode="&#xb5;" horiz-adv-x="1212" 
d="M440 -464h-328v1392h328v-530q0 -83 42 -125.5t125 -42.5q166 0 166 172v526h328v-589q0 -170 -103 -260q-134 -119 -369 -119q-117 0 -216 35z" />
    <glyph glyph-name="partialdiff" unicode="&#x2202;" 
d="M96 1073l42 281q397 -38 611 -219q250 -211 250 -577q0 -319 -185 -471q-128 -104 -319 -104q-209 0 -337 131q-137 139 -137 347q0 180 117.5 300.5t294.5 120.5q139 0 220 -62q-99 223 -557 253zM510 613q-65 0 -112 -45q-52 -49 -52 -126q0 -72 48 -121t113 -49
q67 0 114 50t47 121q0 76 -50 124q-45 45 -108 46z" />
    <glyph glyph-name="summation" unicode="&#x2211;" horiz-adv-x="1365" 
d="M1298 1536v-550h-330l-41 213h-446l488 -659l-485 -715h461l24 226h348v-563h-1248v387l465 664l-465 608v389h1229z" />
    <glyph glyph-name="product" unicode="&#x220f;" horiz-adv-x="1365" 
d="M30 1536h1305v-293h-145v-1462h145v-293h-594v293h121v1462h-359v-1462h119v-293h-592v293h148v1462h-148v293z" />
    <glyph glyph-name="pi" unicode="&#x3c0;" horiz-adv-x="1342" 
d="M191 0v713h-149v270h1259v-270h-150v-713h-343v713h-274v-713h-343z" />
    <glyph glyph-name="integral" unicode="&#x222b;" 
d="M41 -492l59 348q53 -20 91 -20q87 0 114 71q10 26 10 239v664q0 255 3 309t21 121q37 143 169 228q108 68 277 68q80 0 199 -20l-59 -348q-53 20 -93 20q-83 0 -111 -71q-11 -26 -11 -115v-778q0 -240 -1.5 -288t-10.5 -96q-30 -172 -159 -267q-114 -84 -303 -84
q-85 0 -195 19z" />
    <glyph glyph-name="ordfeminine" unicode="&#xaa;" horiz-adv-x="743" 
d="M486 1348h192v-542h-192v59q-62 -77 -167 -77q-119 0 -203 91q-72 78 -72 199q0 139 96 222q76 65 177 65q102 0 169 -70v53zM367 1200q-51 0 -87.5 -36t-36.5 -86q0 -52 36 -88.5t88 -36.5q51 0 87.5 36.5t36.5 87.5t-36 86.5t-88 36.5zM64 703h620v-123h-620v123z" />
    <glyph glyph-name="ordmasculine" unicode="&#xba;" horiz-adv-x="740" 
d="M370 1368q161 0 252 -99q75 -80 75 -193q0 -131 -98 -216q-88 -75 -232 -75q-158 0 -248 98q-75 81 -75 198q0 126 98 211q85 74 228 76zM370 1200q-51 0 -87.5 -36t-36.5 -86q0 -52 36.5 -88.5t88.5 -36.5q51 0 87.5 36t36.5 87q0 52 -36 87.5t-89 36.5zM60 703h620
v-123h-620v123z" />
    <glyph glyph-name="Omega" unicode="&#x2126;" horiz-adv-x="1364" 
d="M58 0v236h281q-118 74 -176 153q-105 142 -105 360q0 270 166 452q180 197 458 197t458 -197q166 -182 166 -451q0 -180 -65 -299.5t-216 -214.5h281v-236h-552v210q117 67 175 146q103 142 103 365q0 172 -77 286q-48 71 -120 113t-153 42q-143 0 -246 -120
q-104 -120 -104 -322q0 -183 67 -306t212 -204v-210h-553z" />
    <glyph glyph-name="ae" unicode="&#xe6;" horiz-adv-x="1777" 
d="M1702 411h-694q4 -88 44 -138q58 -74 167 -74q113 0 150 88h318q-30 -104 -96 -173q-139 -146 -383 -146q-137 0 -230.5 46.5t-136.5 135.5q-146 -176 -382 -176q-98 0 -180.5 29.5t-130.5 81.5q-73 79 -73 188q0 155 131 243q92 63 256 63q113 0 238 -48q1 15 1 25
q0 167 -224 167q-95 0 -256 -53v247q151 44 274 44q153 0 253 -63q46 -29 93 -102q55 80 146.5 122.5t207.5 42.5q182 0 315 -90q101 -68 146 -175t46 -285zM1396 601q-18 62 -51 95q-55 56 -140 56q-139 0 -189 -151h380zM537 395q-72 0 -108 -32q-33 -29 -33 -66
q0 -46 41 -75t107 -29q75 0 121 33q43 32 43 70q0 43 -47.5 70.5t-123.5 28.5z" />
    <glyph glyph-name="oslash" unicode="&#xf8;" horiz-adv-x="1267" 
d="M27 73l137 107q-88 132 -88 288q0 136 72 252q149 242 495 242q190 0 356 -104l154 120l96 -121l-138 -117q45 -67 62.5 -123t17.5 -134q0 -257 -168 -393q-154 -125 -397 -125q-220 0 -351 107l-151 -117zM438 381l316 261q-54 38 -111 38q-101 0 -166 -68
q-60 -62 -60 -144q0 -38 21 -87zM523 287q50 -33 109 -33q98 0 160 68q57 63 57 141q0 33 -16 77z" />
    <glyph glyph-name="questiondown" unicode="&#xbf;" horiz-adv-x="1117" 
d="M740 595v-353q-43 10 -73 10q-101 0 -168.5 -52t-67.5 -129q0 -57 38.5 -95.5t96.5 -38.5q56 0 88 36.5t34 101.5h361q-3 -147 -91 -254q-67 -83 -178 -128q-105 -43 -221 -43q-205 0 -340 127q-65 61 -101.5 141t-36.5 161q0 86 39 165t106 130q68 51 182 91v130h332z
M565 1092q88 0 150 -62t62 -152q0 -86 -62.5 -147.5t-148.5 -61.5q-88 0 -150 62t-62 149q0 88 61 149.5t150 62.5z" />
    <glyph glyph-name="exclamdown" unicode="&#xa1;" horiz-adv-x="696" 
d="M348 1092q88 0 150 -62t62 -149q0 -88 -62 -150t-149 -62q-89 0 -150 62q-62 62 -62 152q0 86 61.5 147t149.5 62zM178 587h341v-901h-341v901z" />
    <glyph glyph-name="logicalnot" unicode="&#xac;" 
d="M577 0v270h-509v340h887v-610h-378z" />
    <glyph glyph-name="radical" unicode="&#x221a;" horiz-adv-x="1365" 
d="M1365 1693v-303h-319l-326 -1390h-432l-98 484h-190v303h397l42 -184q26 -136 31 -297h21q10 127 38 296.5t62 311.5l186 779h588z" />
    <glyph glyph-name="florin" unicode="&#x192;" horiz-adv-x="1229" 
d="M845 908h200l-25 -137h-198l-96 -528q-25 -137 -54 -220t-77 -155q-70 -105 -158 -149q-104 -53 -267 -53q-81 0 -187 18l53 299q81 -18 134 -18q108 0 153 68.5t86 293.5l80 444h-156l21 137h160l41 217q19 98 48.5 160t82.5 112q108 101 274 101q75 0 123.5 -13.5
t107.5 -49.5l-52 -284q-79 55 -144 55q-53 0 -80.5 -38.5t-46.5 -136.5z" />
    <glyph glyph-name="approxequal" unicode="&#x2248;" 
d="M199 713l-185 131q39 101 84 167q95 139 236 139q42 0 89 -14.5t211 -76.5q38 -15 67 -15q37 0 63 18t60 68l185 -130q-36 -90 -62 -135.5t-65 -85.5q-80 -84 -195 -84q-68 0 -229 65q-101 40 -141 40q-58 0 -118 -87zM199 218l-185 131q39 102 84 168q95 138 236 138
q41 0 88.5 -14.5t211.5 -76.5q38 -15 67 -15q37 0 62.5 18t60.5 69l185 -131q-36 -90 -62 -135t-65 -86q-80 -84 -195 -84q-70 0 -229 65q-100 40 -141 40q-58 0 -118 -87z" />
    <glyph glyph-name="Delta" unicode="&#x2206;" horiz-adv-x="1356" 
d="M19 0l466 1365h381l472 -1365h-1319zM485 318h378l-184 661z" />
    <glyph glyph-name="guillemotleft" unicode="&#xab;" horiz-adv-x="1087" 
d="M772 467l233 -315l-186 -131l-311 446l311 444l181 -124zM321 467l234 -315l-187 -131l-311 446l311 444l181 -124z" />
    <glyph glyph-name="guillemotright" unicode="&#xbb;" horiz-adv-x="1087" 
d="M315 467l-228 320l182 124l311 -444l-311 -446l-187 131zM766 467l-228 320l181 124l311 -444l-311 -446l-186 131z" />
    <glyph glyph-name="ellipsis" unicode="&#x2026;" horiz-adv-x="1864" 
d="M311 386q88 0 150 -62t62 -150t-62 -150t-150 -62q-89 0 -150 62q-62 63 -62 153q0 86 62 147t150 62zM932 386q88 0 150 -62t62 -150t-62 -150t-150 -62q-89 0 -150 62q-62 63 -62 153q0 86 62 147t150 62zM1553 386q88 0 150 -62t62 -150t-62 -150t-150 -62
q-89 0 -150 62q-62 63 -62 153q0 86 61.5 147t150.5 62z" />
    <glyph glyph-name="glyph172" horiz-adv-x="1229" 
 />
    <glyph glyph-name="Agrave" unicode="&#xc0;" horiz-adv-x="1454" 
d="M973 238h-490l-94 -238h-375l525 1365h387l514 -1365h-379zM877 508l-147 435l-149 -435h296zM402 1712l190 173l296 -282l-138 -128z" />
    <glyph glyph-name="Atilde" unicode="&#xc3;" horiz-adv-x="1454" 
d="M973 238h-490l-94 -238h-375l525 1365h387l514 -1365h-379zM877 508l-147 435l-149 -435h296zM498 1509h-171q1 96 28 158q27 61 81.5 96.5t120.5 35.5q56 0 187 -42q89 -29 128 -29q59 0 79 74h178q-13 -118 -38 -167q-64 -126 -216 -126q-71 0 -169 35q-105 37 -137 37
t-45.5 -14t-25.5 -58z" />
    <glyph glyph-name="Otilde" unicode="&#xd5;" horiz-adv-x="1675" 
d="M837 1406q342 0 559 -229q197 -207 197 -498q0 -200 -99 -369q-106 -182 -293 -277q-162 -82 -370 -82q-337 0 -552 228q-197 208 -197 512q0 191 99 356q211 352 656 359zM837 1062q-159 0 -270 -112q-113 -114 -113 -267q0 -162 113 -276q111 -112 271 -112
q159 0 272 112q112 113 112 272q0 161 -112 271q-113 110 -273 112zM622 1509h-171q1 96 28 158q27 61 81.5 96.5t120.5 35.5q56 0 187 -42q89 -29 128 -29q59 0 79 74h178q-13 -118 -38 -167q-64 -126 -216 -126q-71 0 -169 35q-105 37 -137 37t-45.5 -14t-25.5 -58z" />
    <glyph glyph-name="OE" unicode="&#x152;" horiz-adv-x="2077" 
d="M1995 1063h-412v-226h385v-300h-385v-237h412v-300h-767v144q-189 -186 -429 -186q-163 0 -314 77q-206 104 -316 307q-87 160 -87 343q0 203 106 375q102 167 280 263q163 88 339 88q128 0 227.5 -42.5t193.5 -138.5v135h767v-302zM834 1066q-158 0 -269 -112
q-52 -52 -82 -123t-30 -141q0 -161 112 -275q111 -112 270 -112q158 0 269 112q112 113 112 271q0 159 -112 268q-112 110 -270 112z" />
    <glyph glyph-name="oe" unicode="&#x153;" horiz-adv-x="1918" 
d="M1843 408h-698q10 -96 44 -140q52 -69 161 -69q60 0 95.5 20t62.5 68h317q-21 -102 -86 -172q-140 -149 -396 -149q-124 0 -208 38t-149 124q-62 -63 -98 -88q-104 -74 -281 -74q-259 0 -398 147q-134 141 -134 347q0 157 79 280q142 222 457 222q118 0 202.5 -33
t172.5 -114q61 73 147 106.5t210 33.5q188 0 310 -88q99 -71 142.5 -176.5t47.5 -282.5zM1537 596q-23 72 -72.5 111t-118.5 39q-72 0 -122 -39t-70 -111h383zM618 671q-88 0 -146 -64q-55 -61 -55 -142q0 -102 71 -165q57 -51 129 -51q85 0 146 66q56 60 56 147
q0 97 -70 160q-53 48 -131 49z" />
    <glyph glyph-name="endash" unicode="&#x2013;" horiz-adv-x="1229" 
d="M130 621h969v-273h-969v273z" />
    <glyph glyph-name="emdash" unicode="&#x2014;" horiz-adv-x="1570" 
d="M0 621h1570v-273h-1570v273z" />
    <glyph glyph-name="quotedblleft" unicode="&#x201c;" horiz-adv-x="1171" 
d="M869 765h-309l333 600h211zM405 765h-309l333 600h210z" />
    <glyph glyph-name="quotedblright" unicode="&#x201d;" horiz-adv-x="1171" 
d="M303 1365h308l-333 -600h-210zM767 1365h309l-334 -600h-210z" />
    <glyph glyph-name="quoteleft" unicode="&#x2018;" horiz-adv-x="707" 
d="M405 765h-309l333 600h210z" />
    <glyph glyph-name="quoteright" unicode="&#x2019;" horiz-adv-x="707" 
d="M303 1365h308l-333 -600h-210z" />
    <glyph glyph-name="divide" unicode="&#xf7;" horiz-adv-x="1229" 
d="M130 799h969v-232h-969v232zM612 471q60 0 102 -42t42 -101q0 -60 -42 -102t-101 -42q-60 0 -102 42.5t-42 102.5q0 58 42 99.5t101 42.5zM612 1181q60 0 102 -42t42 -101q0 -60 -42 -102t-101 -42q-60 0 -102 42.5t-42 102.5q0 58 42 99.5t101 42.5z" />
    <glyph glyph-name="lozenge" unicode="&#x25ca;" horiz-adv-x="1365" 
d="M683 1419l531 -736l-531 -736l-532 736zM683 1238l-404 -555l404 -554l403 554z" />
    <glyph glyph-name="ydieresis" unicode="&#xff;" horiz-adv-x="1246" 
d="M448 127l-448 801h381l248 -476l241 476h376l-745 -1392h-368zM390 1427q74 0 126 -52t52 -125q0 -74 -52 -126t-125 -52q-75 0 -126.5 52.5t-51.5 127.5q0 72 52 123t125 52zM854 1427q74 0 126 -51.5t52 -125.5t-52 -126t-125 -52q-75 0 -126.5 52.5t-51.5 127.5
q0 72 52 123t125 52z" />
    <glyph glyph-name="Ydieresis" unicode="&#x178;" horiz-adv-x="1311" 
d="M469 656l-494 709h424l258 -372l248 372h430l-511 -709v-656h-355v656zM409 1850q74 0 126 -52t52 -125q0 -74 -52 -126t-125 -52q-75 0 -126.5 52.5t-51.5 127.5q0 72 52 123t125 52zM901 1850q74 0 126 -52t52 -125q0 -74 -52 -126t-125 -52q-75 0 -126.5 52.5
t-51.5 127.5q0 72 52 123t125 52z" />
    <glyph glyph-name="fraction" unicode="&#x2215;" horiz-adv-x="355" 
d="M485 1365h178l-793 -1365h-177z" />
    <glyph glyph-name="currency" unicode="&#xa4;" horiz-adv-x="1365" 
d="M42 281l210 211q-89 131 -89 281q0 147 91 282l-214 213l145 145l213 -213q138 89 286 89q147 0 281 -87l211 209l144 -144l-209 -209q93 -146 93 -285q0 -144 -89 -280l211 -211l-143 -144l-210 210q-138 -92 -291 -92q-141 0 -287 91l-210 -209zM687 1052
q-118 0 -200 -82q-81 -81 -81 -198q0 -115 81 -197q82 -82 197 -82t197 82q81 82 81 198q0 117 -82 197q-80 79 -193 82z" />
    <glyph glyph-name="guilsinglleft" unicode="&#x2039;" horiz-adv-x="637" 
d="M321 467l234 -315l-187 -131l-311 446l311 444l181 -124z" />
    <glyph glyph-name="guilsinglright" unicode="&#x203a;" horiz-adv-x="637" 
d="M315 467l-228 320l182 124l311 -444l-311 -446l-187 131z" />
    <glyph glyph-name="fi" unicode="&#xf001;" horiz-adv-x="1218" 
d="M467 655v-655h-328v655h-117v273h117v140q0 116 23 185t81 131q130 138 310 138q72 0 145 -34v-286q-69 33 -115 33q-32 0 -62.5 -18t-41.5 -43q-12 -29 -12 -129v-117h231v-273h-231zM1106 928v-928h-328v928h328zM942 1469q77 0 131 -54t54 -130q0 -77 -54 -131
t-130 -54q-78 0 -131 54q-54 55 -54 133q0 74 54 127.5t130 54.5z" />
    <glyph glyph-name="fl" unicode="&#xf002;" horiz-adv-x="1218" 
d="M467 655v-655h-328v655h-117v273h117v140q0 116 23 185t81 131q130 138 310 138q72 0 145 -34v-286q-69 33 -115 33q-32 0 -62.5 -18t-41.5 -43q-12 -29 -12 -129v-117h231v-273h-231zM1106 1502v-1502h-328v1502h328z" />
    <glyph glyph-name="daggerdbl" unicode="&#x2021;" horiz-adv-x="1229" 
d="M466 1502h300v-268h318v-259h-318v-484h318v-259h-318v-546h-300v546h-321v259h321v484h-321v259h321v268z" />
    <glyph glyph-name="periodcentered" unicode="&#x2219;" horiz-adv-x="621" 
d="M310 696q88 0 150 -62t62 -149q0 -88 -62 -150t-149 -62q-89 0 -150 62q-62 63 -62 152q0 86 61.5 147t149.5 62z" />
    <glyph glyph-name="quotesinglbase" unicode="&#x201a;" horiz-adv-x="707" 
d="M303 347h308l-333 -601h-210z" />
    <glyph glyph-name="quotedblbase" unicode="&#x201e;" horiz-adv-x="1171" 
d="M303 347h308l-333 -601h-210zM767 347h309l-334 -601h-210z" />
    <glyph glyph-name="perthousand" unicode="&#x2030;" horiz-adv-x="2712" 
d="M450 1380q177 0 277 -107q88 -94 88 -224q0 -159 -121 -261q-92 -77 -257 -77q-181 0 -282 106q-87 89 -87 235q0 142 99 234q100 93 283 94zM441 1200q-62 0 -107.5 -44.5t-45.5 -107.5q0 -65 45 -110t109 -45q63 0 108 45t45 109q0 63 -44.5 107.5t-109.5 45.5z
M1223 1365h178l-793 -1365h-177zM1400 653q177 0 277 -107q88 -94 88 -224q0 -159 -121 -261q-92 -77 -257 -77q-181 0 -282 106q-87 90 -87 235q0 142 99 234q100 93 283 94zM1391 473q-62 0 -107.5 -44.5t-45.5 -107.5q0 -64 45 -109.5t109 -45.5q63 0 108 45t45 109
q0 63 -44.5 107.5t-109.5 45.5zM2278 653q178 0 277 -107q88 -94 88 -224q0 -159 -121 -261q-92 -77 -257 -77q-181 0 -282 106q-87 90 -87 235q0 142 99 234q100 93 283 94zM2269 473q-62 0 -107.5 -44.5t-45.5 -107.5q0 -64 45 -109.5t109 -45.5q63 0 108 45t45 109
t-44.5 108t-109.5 45z" />
    <glyph glyph-name="Acircumflex" unicode="&#xc2;" horiz-adv-x="1454" 
d="M973 238h-490l-94 -238h-375l525 1365h387l514 -1365h-379zM877 508l-147 435l-149 -435h296zM310 1630l417 246l417 -246l-98 -155l-319 160l-319 -160z" />
    <glyph glyph-name="Ecircumflex" unicode="&#xca;" horiz-adv-x="1002" 
d="M920 1065h-422v-228h399v-300h-399v-237h422v-300h-777v1365h777v-300zM115 1630l417 246l417 -246l-98 -155l-319 160l-319 -160z" />
    <glyph glyph-name="Aacute" unicode="&#xc1;" horiz-adv-x="1454" 
d="M973 238h-490l-94 -238h-375l525 1365h387l514 -1365h-379zM877 508l-147 435l-149 -435h296zM1066 1712l-348 -237l-138 128l296 282z" />
    <glyph glyph-name="Edieresis" unicode="&#xcb;" horiz-adv-x="1002" 
d="M920 1065h-422v-228h399v-300h-399v-237h422v-300h-777v1365h777v-300zM293 1850q74 0 126 -52t52 -125q0 -74 -52 -126t-125 -52q-75 0 -126.5 52.5t-51.5 127.5q0 72 52 123t125 52zM785 1850q74 0 126 -52t52 -125q0 -74 -52 -126t-125 -52q-75 0 -126.5 52.5
t-51.5 127.5q0 72 52 123t125 52z" />
    <glyph glyph-name="Egrave" unicode="&#xc8;" horiz-adv-x="1002" 
d="M920 1065h-422v-228h399v-300h-399v-237h422v-300h-777v1365h777v-300zM244 1712l190 173l296 -282l-138 -128z" />
    <glyph glyph-name="Iacute" unicode="&#xcd;" horiz-adv-x="642" 
d="M498 1365v-1365h-355v1365h355zM652 1712l-348 -237l-138 128l296 282z" />
    <glyph glyph-name="Icircumflex" unicode="&#xce;" horiz-adv-x="642" 
d="M498 1365v-1365h-355v1365h355zM-69 1630l390 246l389 -246l-98 -155l-291 160l-292 -160z" />
    <glyph glyph-name="Idieresis" unicode="&#xcf;" horiz-adv-x="642" 
d="M499 1365v-1365h-355v1365h355zM109 1850q74 0 126 -52t52 -125q0 -74 -52 -126t-125 -52q-75 0 -126.5 52.5t-51.5 127.5q0 72 52 123t125 52zM532 1850q74 0 126 -52t52 -125q0 -74 -52 -126t-125 -52q-75 0 -126.5 52.5t-51.5 127.5q0 72 52 123t125 52z" />
    <glyph glyph-name="Igrave" unicode="&#xcc;" horiz-adv-x="642" 
d="M498 1365v-1365h-355v1365h355zM-11 1712l190 173l296 -282l-138 -128z" />
    <glyph glyph-name="Oacute" unicode="&#xd3;" horiz-adv-x="1675" 
d="M837 1406q342 0 559 -229q197 -207 197 -498q0 -200 -99 -369q-106 -182 -293 -277q-162 -82 -370 -82q-337 0 -552 228q-197 208 -197 512q0 191 99 356q211 352 656 359zM837 1062q-159 0 -270 -112q-113 -114 -113 -267q0 -162 113 -276q111 -112 271 -112
q159 0 272 112q112 113 112 272q0 161 -112 271q-113 110 -273 112zM1162 1712l-348 -237l-138 128l296 282z" />
    <glyph glyph-name="Ocircumflex" unicode="&#xd4;" horiz-adv-x="1675" 
d="M837 1406q342 0 559 -229q197 -207 197 -498q0 -200 -99 -369q-106 -182 -293 -277q-162 -82 -370 -82q-337 0 -552 228q-197 208 -197 512q0 191 99 356q211 352 656 359zM837 1062q-159 0 -270 -112q-113 -114 -113 -267q0 -162 113 -276q111 -112 271 -112
q159 0 272 112q112 113 112 272q0 161 -112 271q-113 110 -273 112zM421 1630l417 246l417 -246l-98 -155l-319 160l-319 -160z" />
    <glyph glyph-name="apple" unicode="&#xf000;" horiz-adv-x="1365" 
d="M984 1416v-21q0 -161 -127 -265q-48 -39 -86 -54t-91 -15q3 146 84.5 241.5t219.5 113.5zM1277 935q-65 -50 -98 -92q-67 -84 -67 -192q0 -103 54 -184t149 -122q-66 -161 -139 -256q-110 -143 -208 -143q-30 0 -50.5 6.5t-114.5 45.5q-16 7 -78 7q-52 0 -75 -5.5
t-107 -39.5q-42 -17 -79 -17q-55 0 -114 43.5t-112 123.5q-73 108 -118 231q-54 149 -54 288q0 183 100 314q103 134 283 134q66 0 158 -36q68 -26 97 -26q35 0 89 21q80 30 111.5 37.5t76.5 7.5q189 0 296 -146z" />
    <glyph glyph-name="Ograve" unicode="&#xd2;" horiz-adv-x="1675" 
d="M837 1406q342 0 559 -229q197 -207 197 -498q0 -200 -99 -369q-106 -182 -293 -277q-162 -82 -370 -82q-337 0 -552 228q-197 208 -197 512q0 191 99 356q211 352 656 359zM837 1062q-159 0 -270 -112q-113 -114 -113 -267q0 -162 113 -276q111 -112 271 -112
q159 0 272 112q112 113 112 272q0 161 -112 271q-113 110 -273 112zM526 1712l190 173l296 -282l-138 -128z" />
    <glyph glyph-name="Uacute" unicode="&#xda;" horiz-adv-x="1477" 
d="M498 1365v-739q0 -117 6.5 -159t32.5 -85q61 -104 198 -104q67 0 123.5 30t84.5 81q22 40 29 85t7 152v739h355v-787q0 -196 -52 -301q-79 -160 -236 -242q-136 -70 -316 -70q-205 0 -357 89q-127 75 -178.5 192.5t-51.5 331.5v787h355zM1077 1712l-348 -237l-138 128
l296 282z" />
    <glyph glyph-name="Ucircumflex" unicode="&#xdb;" horiz-adv-x="1477" 
d="M498 1365v-739q0 -117 6.5 -159t32.5 -85q61 -104 198 -104q67 0 123.5 30t84.5 81q22 40 29 85t7 152v739h355v-787q0 -196 -52 -301q-79 -160 -236 -242q-136 -70 -316 -70q-205 0 -357 89q-127 75 -178.5 192.5t-51.5 331.5v787h355zM322 1630l417 246l417 -246
l-98 -155l-319 160l-319 -160z" />
    <glyph glyph-name="Ugrave" unicode="&#xd9;" horiz-adv-x="1477" 
d="M498 1365v-739q0 -117 6.5 -159t32.5 -85q61 -104 198 -104q67 0 123.5 30t84.5 81q22 40 29 85t7 152v739h355v-787q0 -196 -52 -301q-79 -160 -236 -242q-136 -70 -316 -70q-205 0 -357 89q-127 75 -178.5 192.5t-51.5 331.5v787h355zM400 1712l190 173l296 -282
l-138 -128z" />
    <glyph glyph-name="dotlessi" unicode="&#x131;" horiz-adv-x="552" 
d="M440 928v-928h-328v928h328z" />
    <glyph glyph-name="circumflex" unicode="&#x2c6;" 
d="M109 1223l400 301l406 -301l-145 -158l-261 202l-261 -202z" />
    <glyph glyph-name="tilde" unicode="&#x2dc;" 
d="M304 1075h-156q0 60 10 104q20 89 73 135t117 46q31 0 56.5 -7t123.5 -42q82 -30 119 -30q30 0 42.5 14.5t25.5 64.5h162q-12 -105 -35 -161q-49 -124 -173 -124q-44 0 -89 12t-163 56q-23 9 -48 9q-31 0 -43.5 -15t-21.5 -62z" />
    <glyph glyph-name="macron" unicode="&#x2c9;" 
d="M154 1307h717v-201h-717v201z" />
    <glyph glyph-name="breve" unicode="&#x2d8;" 
d="M154 1421h209q13 -85 42 -117.5t93 -32.5q80 0 113 30.5t50 119.5h209q-3 -71 -14 -111.5t-38 -82.5q-95 -149 -306 -149t-306 149q-27 42 -38 82.5t-14 111.5z" />
    <glyph glyph-name="dotaccent" unicode="&#x2d9;" 
d="M513 1445q77 0 132 -54q54 -55 54 -132q0 -78 -54.5 -132.5t-131.5 -54.5q-78 0 -132 55q-55 55 -55 134q0 76 54.5 129.5t132.5 54.5z" />
    <glyph glyph-name="ring" unicode="&#x2da;" 
d="M505 1496h14q143 0 216 -70q59 -55 59 -142q0 -88 -59 -142q-74 -70 -216 -70h-14q-141 0 -215 70q-59 54 -59 144q0 85 59 140q73 70 215 70zM510 1366q-48 0 -77.5 -22t-29.5 -59q0 -38 29 -60.5t79 -22.5q52 0 81.5 22t29.5 60q0 39 -29.5 60.5t-82.5 21.5z" />
    <glyph glyph-name="cedilla" unicode="&#xb8;" 
d="M808 -225l-279 -264l-148 93l240 293z" />
    <glyph glyph-name="hungarumlaut" unicode="&#x2dd;" 
d="M619 1344l-280 -279l-125 112l234 316zM988 1344l-280 -279l-125 112l233 316z" />
    <glyph glyph-name="ogonek" unicode="&#x2db;" 
d="M523 0h150q-117 -76 -117 -142q0 -32 23.5 -55t55.5 -23q39 0 103 38l-44 -177q-62 -37 -145 -37q-76 0 -129 48t-53 116q0 133 156 232z" />
    <glyph glyph-name="caron" unicode="&#x2c7;" 
d="M109 1366l139 158l261 -202l261 202l145 -158l-406 -301z" />
    <glyph glyph-name="glyph226" horiz-adv-x="512" 
 />
    <glyph glyph-name="glyph227" horiz-adv-x="512" 
 />
    <glyph glyph-name="glyph228" horiz-adv-x="512" 
 />
    <glyph glyph-name="glyph229" horiz-adv-x="512" 
 />
    <glyph glyph-name="glyph230" horiz-adv-x="512" 
 />
    <glyph glyph-name="glyph231" horiz-adv-x="512" 
 />
    <glyph glyph-name="glyph232" horiz-adv-x="512" 
 />
    <glyph glyph-name="glyph233" horiz-adv-x="512" 
 />
    <glyph glyph-name="glyph234" horiz-adv-x="512" 
 />
    <glyph glyph-name="glyph235" horiz-adv-x="512" 
 />
    <glyph glyph-name="glyph236" horiz-adv-x="512" 
 />
    <glyph glyph-name="glyph237" horiz-adv-x="512" 
 />
    <glyph glyph-name="glyph238" horiz-adv-x="512" 
 />
    <glyph glyph-name="glyph239" horiz-adv-x="512" 
 />
    <glyph glyph-name="glyph240" horiz-adv-x="512" 
 />
    <glyph glyph-name="glyph241" horiz-adv-x="512" 
 />
    <glyph glyph-name="glyph242" horiz-adv-x="512" 
 />
    <glyph glyph-name="glyph243" horiz-adv-x="512" 
 />
    <glyph glyph-name="glyph244" horiz-adv-x="512" 
 />
    <glyph glyph-name="glyph245" horiz-adv-x="512" 
 />
    <glyph glyph-name="glyph246" horiz-adv-x="512" 
 />
    <glyph glyph-name="glyph247" horiz-adv-x="512" 
 />
    <glyph glyph-name="glyph248" horiz-adv-x="512" 
 />
    <glyph glyph-name="glyph249" horiz-adv-x="512" 
 />
    <glyph glyph-name="glyph250" horiz-adv-x="512" 
 />
    <glyph glyph-name="glyph251" horiz-adv-x="512" 
 />
    <glyph glyph-name="glyph252" horiz-adv-x="512" 
 />
    <glyph glyph-name="glyph253" horiz-adv-x="512" 
 />
    <glyph glyph-name="glyph254" horiz-adv-x="512" 
 />
    <glyph glyph-name="glyph255" horiz-adv-x="512" 
 />
    <glyph glyph-name="glyph256" horiz-adv-x="512" 
 />
    <glyph glyph-name="glyph257" horiz-adv-x="512" 
 />
    <glyph glyph-name="nbspace" unicode="&#xa0;" horiz-adv-x="512" 
 />
    <glyph glyph-name="brokenbar" unicode="&#xa6;" 
d="M317 1365h391v-740h-391v740zM317 314h391v-655h-391v655z" />
    <glyph glyph-name="sfthyphen" unicode="&#xad;" horiz-adv-x="519" 
d="M0 621h519v-273h-519v273z" />
    <glyph glyph-name="overscore" unicode="&#xaf;" 
d="M0 1821h1024v-225h-1024v225z" />
    <glyph glyph-name="twosuperior" unicode="&#xb2;" horiz-adv-x="819" 
d="M480 737h253v-191h-670l216 226q215 224 215 338q0 40 -25.5 68.5t-61.5 28.5q-35 0 -57 -25.5t-22 -66.5q0 -13 4 -40h-245q0 56 15 103q34 113 117 169q78 52 187 52q144 0 232 -87q86 -84 86 -210q0 -138 -121 -251z" />
    <glyph glyph-name="threesuperior" unicode="&#xb3;" horiz-adv-x="819" 
d="M363 897v159q20 -2 30 -2q37 0 59.5 22.5t22.5 59.5q0 32 -21 52.5t-54 20.5q-77 0 -78 -91h-208q10 87 42 142q38 66 105 99q71 36 157 36q121 0 195 -67q71 -65 71 -172q0 -112 -76 -165q54 -20 88 -78t34 -129q0 -141 -117 -217q-86 -56 -205 -56q-199 0 -293 161
q-42 71 -43 146h227q6 -112 109 -112q44 0 73 28t29 70t-30.5 71.5t-73.5 29.5q-15 0 -43 -8z" />
    <glyph glyph-name="middot" unicode="&#xb7;" horiz-adv-x="621" 
d="M310 696q88 0 150 -62t62 -149q0 -88 -62 -150t-149 -62q-89 0 -150 62q-62 63 -62 152q0 86 61.5 147t149.5 62z" />
    <glyph glyph-name="onesuperior" unicode="&#xb9;" horiz-adv-x="819" 
d="M324 1174h-115v191h338v-819h-223v628z" />
    <glyph glyph-name="onequarter" unicode="&#xbc;" horiz-adv-x="1994" 
d="M323 1174h-115v191h338v-819h-223v628zM1303 1365h177l-792 -1365h-177zM1825 340h98v-175h-98v-165h-208v165h-390v144l313 510h285v-479zM1617 340v279l-170 -279h170z" />
    <glyph glyph-name="onehalf" unicode="&#xbd;" horiz-adv-x="1993" 
d="M323 1174h-115v191h338v-819h-223v628zM1303 1365h177l-792 -1365h-177zM1652 191h253v-191h-670l216 226q110 115 162.5 197t52.5 140q0 40 -25.5 68.5t-61.5 28.5q-35 0 -57 -25.5t-22 -66.5q0 -12 4 -40h-245q0 56 15 104q34 113 117 169q78 52 187 52q144 0 232 -87
q86 -85 86 -211q0 -138 -121 -250z" />
    <glyph glyph-name="threequarters" unicode="&#xbe;" horiz-adv-x="1994" 
d="M363 897v159q20 -2 30 -2q37 0 59.5 22.5t22.5 59.5q0 32 -21 52.5t-54 20.5q-77 0 -78 -91h-208q10 87 42 142q38 65 105 99q71 36 157 36q121 0 195 -67q71 -65 71 -172q0 -112 -76 -165q54 -21 88 -78.5t34 -128.5q0 -142 -117 -217q-86 -56 -205 -56q-199 0 -293 161
q-42 71 -43 146h227q6 -112 109 -112q44 0 73 27.5t29 70.5q0 42 -30.5 71.5t-73.5 29.5q-16 0 -43 -8zM1303 1365h178l-792 -1365h-178zM1825 340h99v-175h-99v-165h-208v165h-390v144l313 510h285v-479zM1617 340v279l-170 -279h170z" />
    <glyph glyph-name="Eth" unicode="&#xd0;" horiz-adv-x="1423" 
d="M143 0v587h-123v232h123v546h524q256 0 449 -181q110 -102 169 -240q55 -129 55 -261q0 -193 -110 -366q-109 -171 -288 -255q-132 -62 -275 -62h-524zM498 300h82q99 0 168 27t122 87q99 111 99 269q0 157 -99 268q-53 60 -122 87t-168 27h-82v-246h232v-232h-232v-287z
" />
    <glyph glyph-name="multiply" unicode="&#xd7;" horiz-adv-x="1229" 
d="M354 1107l261 -260l261 260l164 -164l-261 -260l261 -261l-164 -164l-261 261l-261 -261l-164 164l261 261l-261 260z" />
    <glyph glyph-name="Yacute" unicode="&#xdd;" horiz-adv-x="1311" 
d="M469 656l-494 709h424l258 -372l248 372h430l-511 -709v-656h-355v656zM1007 1712l-348 -237l-138 128l296 282z" />
    <glyph glyph-name="Thorn" unicode="&#xde;" horiz-adv-x="1227" 
d="M498 262v-262h-355v1365h355v-191h210q120 0 197 -26t143 -88q134 -126 134 -339q0 -208 -110 -332q-112 -127 -352 -127h-222zM498 547h118q103 0 145 39q50 46 50 131q0 87 -47.5 129.5t-146.5 42.5h-119v-342z" />
    <glyph glyph-name="eth" unicode="&#xf0;" horiz-adv-x="1267" 
d="M810 1502l104 -169l-142 -89q133 -115 219 -229q201 -265 201 -530q0 -230 -150 -370q-156 -147 -407 -147q-230 0 -385 124q-175 140 -175 374q0 188 115 317q153 173 444 178q-55 70 -114 124l-179 -115l-101 164l123 80q-46 31 -122 71l129 223q142 -63 234 -136z
M633 680q-88 0 -149 -62q-62 -64 -62 -149q0 -91 62 -154q61 -63 150 -63q87 0 149 63q62 62 62 151t-61 151t-151 63z" />
    <glyph glyph-name="yacute" unicode="&#xfd;" horiz-adv-x="1246" 
d="M448 127l-448 801h381l248 -476l241 476h376l-745 -1392h-368zM952 1344l-315 -279l-152 112l259 316z" />
    <glyph glyph-name="thorn" unicode="&#xfe;" horiz-adv-x="1270" 
d="M440 -464h-328v1966h328v-676q107 134 287 134q116 0 223 -60q118 -67 182 -181q63 -112 63 -257q0 -236 -165 -377q-134 -116 -298 -116q-174 0 -292 122v-555zM642 677q-86 0 -150 -63q-62 -61 -62 -149t62 -150q65 -64 151 -64q85 0 149 64q62 62 62 147q0 91 -62 152
q-63 62 -150 63z" />
    <glyph glyph-name="Cacute" unicode="&#x106;" horiz-adv-x="1208" 
d="M1079 1712l-348 -237l-138 128l296 282zM1126 1325v-425q-122 150 -307 150q-162 0 -270 -114q-96 -100 -96 -262q0 -175 120 -276q108 -91 245 -91q172 0 308 143v-420q-126 -42 -185 -54.5t-133 -12.5q-188 0 -361 95q-184 101 -278 269q-87 153 -87 344q0 214 106 384
q100 162 277 254q162 85 340 85q146 0 321 -69z" />
    <glyph glyph-name="cacute" unicode="&#x107;" horiz-adv-x="887" 
d="M855 1344l-315 -279l-152 112l259 316zM812 905v-279q-86 60 -170 60q-105 0 -172 -73q-54 -60 -54 -152q0 -100 66 -161q67 -62 160 -62q91 0 170 61v-278q-114 -52 -230 -52q-144 0 -270 75q-237 140 -237 412q0 230 166 375q143 126 350 126q119 0 221 -52z" />
    <glyph glyph-name="Ccaron" unicode="&#x10c;" horiz-adv-x="1208" 
d="M1158 1721l-417 -246l-417 246l98 155l319 -160l319 160zM1126 1325v-425q-122 150 -307 150q-162 0 -270 -114q-96 -100 -96 -262q0 -175 120 -276q108 -91 245 -91q172 0 308 143v-420q-126 -42 -185 -54.5t-133 -12.5q-188 0 -361 95q-184 101 -278 269
q-87 153 -87 344q0 214 106 384q100 162 277 254q162 85 340 85q146 0 321 -69z" />
    <glyph glyph-name="ccaron" unicode="&#x10d;" horiz-adv-x="887" 
d="M150 1366l139 158l261 -202l261 202l145 -158l-406 -301zM812 905v-279q-86 60 -170 60q-105 0 -172 -73q-54 -60 -54 -152q0 -100 66 -161q67 -62 160 -62q91 0 170 61v-278q-114 -52 -230 -52q-144 0 -270 75q-237 140 -237 412q0 230 166 375q143 126 350 126
q119 0 221 -52z" />
    <glyph glyph-name="dmacron" unicode="&#x111;" horiz-adv-x="1270" 
d="M830 1502h328v-164h109v-218h-109v-1120h-328v103q-105 -135 -286 -135q-117 0 -223 59q-118 66 -183 181q-63 113 -63 258q0 237 165 380q132 114 301 114q90 0 159.5 -29.5t129.5 -93.5v283h-259v218h259v164zM628 677q-88 0 -150 -62q-62 -63 -62 -148q0 -91 62 -154
q62 -62 150 -62t150 62t62 151t-61.5 150.5t-150.5 62.5z" />
    <glyph glyph-name="Gbreve" unicode="&#x11e;" horiz-adv-x="1593" 
d="M406 1810h230q28 -121 161 -121t160 121h231q-6 -98 -55 -166q-105 -149 -336 -149t-337 149q-49 68 -54 166zM807 758h704q-4 -273 -71 -420q-85 -187 -246 -286q-162 -100 -384 -100q-223 0 -400 102q-173 100 -258 288q-71 155 -71 333q0 203 91 375q94 180 268 270
q172 89 383 89q218 0 368.5 -94t246.5 -290l-337 -139q-93 216 -295 216q-157 0 -255 -125q-99 -125 -99 -302q0 -201 122 -331q92 -98 243 -98q153 0 231 100q37 47 50 136h-291v276z" />
    <glyph glyph-name="gbreve" unicode="&#x11f;" horiz-adv-x="1263" 
d="M274 1421h209q13 -85 42 -117.5t93 -32.5q80 0 113 30.5t50 119.5h209q-3 -71 -14 -111.5t-38 -82.5q-95 -149 -306 -149t-306 149q-27 42 -38 82.5t-14 111.5zM1151 928v-864q0 -190 -47 -278q-74 -140 -222 -204q-114 -50 -271 -50q-272 0 -425 162q-82 87 -100 193
h369q33 -93 156 -93q99 0 155.5 59t56.5 162v88q-74 -68 -138.5 -95t-153.5 -27q-228 0 -359 166q-97 123 -97 303q0 228 145 371q135 133 327 133q89 0 153.5 -28.5t122.5 -94.5v97h328zM627 678q-88 0 -149 -62q-62 -62 -62 -147q0 -90 62 -152q61 -62 150 -62
q87 0 149 62t62 150t-61 149t-151 62z" />
    <glyph glyph-name="Idot" unicode="&#x130;" horiz-adv-x="642" 
d="M320 1850q74 0 126 -52t52 -125q0 -74 -52 -126t-125 -52q-75 0 -126.5 52.5t-51.5 127.5q0 72 52 123t125 52zM498 1365v-1365h-355v1365h355z" />
    <glyph glyph-name="Lslash" unicode="&#x141;" horiz-adv-x="983" 
d="M514 1365v-463l236 162v-262l-236 -162v-340h430v-300h-785v470l-139 -105v263l139 103v634h355z" />
    <glyph glyph-name="lslash" unicode="&#x142;" horiz-adv-x="683" 
d="M505 1502v-584l157 109v-264l-157 -103v-660h-328v503l-157 -109v262l157 103v743h328z" />
    <glyph glyph-name="Scedilla" unicode="&#x15e;" horiz-adv-x="1170" 
d="M711 -236l-283 -276l-159 111l239 307zM1034 1287l-142 -276q-114 92 -232 92q-75 0 -117 -42q-35 -34 -35 -75q0 -62 85 -103q24 -11 161 -52q178 -53 256.5 -142t78.5 -237q0 -264 -176 -387q-144 -101 -356 -101q-253 0 -475 155l152 286q159 -139 313 -139
q94 0 137 49q34 39 34 84q0 56 -44.5 88.5t-169.5 69.5q-195 57 -259 110q-109 89 -109 271q0 213 141 342q128 118 324 118q223 0 433 -111z" />
    <glyph glyph-name="scedilla" unicode="&#x15f;" horiz-adv-x="922" 
d="M607 -225l-279 -264l-148 93l240 293zM840 901l-111 -212q-93 45 -179 45q-44 0 -72 -18.5t-28 -47.5q0 -37 52 -56q15 -6 95 -23q115 -23 175 -71q95 -74 95 -204q0 -171 -136 -267q-117 -82 -305 -82q-189 0 -371 107l119 232q141 -94 261 -94q45 0 74 20t29 51
q0 35 -26.5 51.5t-113.5 34.5q-118 25 -176 64q-96 64 -96 194q0 145 103 239q107 97 310 97q156 0 301 -60z" />
    <glyph glyph-name="Scaron" unicode="&#x160;" horiz-adv-x="1170" 
d="M1034 1287l-142 -276q-114 92 -232 92q-75 0 -117 -42q-35 -34 -35 -75q0 -62 85 -103q24 -11 161 -52q178 -53 256.5 -142t78.5 -237q0 -264 -176 -387q-144 -101 -356 -101q-253 0 -475 155l152 286q159 -139 313 -139q94 0 137 49q34 39 34 84q0 56 -44.5 88.5
t-169.5 69.5q-195 57 -259 110q-109 89 -109 271q0 213 141 342q128 118 324 118q223 0 433 -111zM1016 1721l-417 -246l-417 246l98 155l319 -160l319 160z" />
    <glyph glyph-name="scaron" unicode="&#x161;" horiz-adv-x="922" 
d="M840 901l-111 -212q-93 45 -179 45q-44 0 -72 -18.5t-28 -47.5q0 -37 52 -56q15 -6 95 -23q115 -23 175 -71q95 -74 95 -204q0 -171 -136 -267q-117 -82 -305 -82q-189 0 -371 107l119 232q141 -94 261 -94q45 0 74 20t29 51q0 35 -26.5 51.5t-113.5 34.5
q-118 25 -176 64q-96 64 -96 194q0 145 103 239q107 97 310 97q156 0 301 -60zM99 1366l139 158l261 -202l261 202l145 -158l-406 -301z" />
    <glyph glyph-name="Zcaron" unicode="&#x17d;" horiz-adv-x="1293" 
d="M622 300h573v-300h-1168l646 1065h-537v300h1129zM1131 1721l-444 -246l-444 246l98 155l346 -160l346 160z" />
    <glyph glyph-name="zcaron" unicode="&#x17e;" horiz-adv-x="1067" 
d="M591 273h391v-273h-941l438 655h-379v273h926zM144 1366l139 158l261 -202l261 202l145 -158l-406 -301z" />
    <glyph glyph-name="franc" unicode="&#x20a3;" horiz-adv-x="1529" 
d="M925 1065h-427v-228h389v-300h-389v-537h-355v1365h782v-300zM990 650h257v-106q40 65 90 93.5t126 28.5q19 0 49 -2v-233q-50 23 -104 23q-161 0 -161 -183v-271h-257v650z" />
    <glyph glyph-name="minus" unicode="&#x2212;" horiz-adv-x="1229" 
d="M130 799h969v-232h-969v232z" />
    <glyph glyph-name="glyph294" 
d="M300 1850q74 0 126 -52t52 -125q0 -74 -52 -126t-125 -52q-75 0 -126.5 52.5t-51.5 127.5q0 72 52 123t125 52zM723 1850q74 0 126 -52t52 -125q0 -74 -52 -126t-125 -52q-75 0 -126.5 52.5t-51.5 127.5q0 72 52 123t125 52z" />
    <glyph glyph-name="glyph295" 
d="M829 -236l-283 -276l-159 111l239 307z" />
    <glyph glyph-name="glyph296" 
d="M512 1850q74 0 126 -52t52 -125q0 -74 -52 -126t-125 -52q-75 0 -126.5 52.5t-51.5 127.5q0 72 52 123t125 52z" />
    <glyph glyph-name="glyph297" 
d="M121 1810h230q28 -121 161 -121t160 121h231q-6 -98 -55 -166q-105 -149 -336 -149t-337 149q-49 68 -54 166z" />
    <glyph glyph-name="glyph298" 
d="M505 1892h14q143 0 216 -70q59 -55 59 -143q0 -86 -59 -142q-73 -70 -216 -70h-14q-142 0 -215 70q-59 56 -59 145q0 84 59 140q73 70 215 70zM511 1758q-48 0 -76 -21t-28 -56q0 -37 28 -58t76 -21q50 0 78.5 21t28.5 57q0 37 -28.5 57.5t-78.5 20.5z" />
    <glyph glyph-name="glyph299" 
d="M283 1509h-171q1 96 28 158q27 61 81.5 96.5t120.5 35.5q56 0 187 -42q89 -29 128 -29q59 0 79 74h178q-13 -118 -38 -167q-64 -126 -216 -126q-71 0 -169 35q-105 37 -137 37t-45.5 -14t-25.5 -58z" />
    <glyph glyph-name="glyph300" 
d="M95 1630l417 246l417 -246l-98 -155l-319 160l-319 -160z" />
    <glyph glyph-name="glyph301" 
d="M160 1712l190 173l296 -282l-138 -128z" />
    <glyph glyph-name="glyph302" 
d="M864 1712l-348 -237l-138 128l296 282z" />
    <glyph glyph-name="glyph303" 
d="M929 1721l-417 -246l-417 246l98 155l319 -160l319 160z" />
    <glyph glyph-name="glyph304" 
d="M266 1850q74 0 126 -52t52 -125q0 -74 -52 -126t-125 -52q-75 0 -126.5 52.5t-51.5 127.5q0 72 52 123t125 52zM758 1850q74 0 126 -52t52 -125q0 -74 -52 -126t-125 -52q-75 0 -126.5 52.5t-51.5 127.5q0 72 52 123t125 52z" />
    <glyph glyph-name="glyph305" 
d="M300 1427q74 0 126 -52t52 -125q0 -74 -52 -126t-125 -52q-75 0 -126.5 52.5t-51.5 127.5q0 72 52 123t125 52zM723 1427q74 0 126 -52t52 -125q0 -74 -52 -126t-125 -52q-75 0 -126.5 52.5t-51.5 127.5q0 72 52 123t125 52z" />
    <glyph glyph-name="glyph306" horiz-adv-x="512" 
 />
    </font>
</defs>
</svg>
